<svg width="108" height="99" viewBox="0 0 108 99" fill="none" xmlns="http://www.w3.org/2000/svg">
<g clip-path="url(#clip0_4454_2216)">
<path d="M93.2656 75.3098C93.0891 73.6609 92.6673 72.1893 92.0077 70.9335C90.8303 68.0403 87.0487 65.5324 80.4517 63.2634C80.3788 63.2018 80.2906 63.0169 80.2369 62.6856C82.7989 59.8425 83.6733 55.8707 83.1517 49.6223C82.7759 44.568 78.6607 42.2643 74.998 42.2643C71.3277 42.2643 67.2125 44.568 66.8443 49.6223C66.3266 55.7784 67.224 59.8502 69.7552 62.6816C69.7015 63.0168 69.6133 63.2017 69.5404 63.2633C68.3554 63.6678 67.2393 64.0955 66.2077 64.5308C64.6275 63.822 62.8518 63.1285 60.8805 62.4505C60.5277 62.2425 60.3781 61.6569 60.3206 61.1176C63.6688 57.5078 64.8116 52.4228 64.1328 44.3254C63.6687 38.0537 58.5563 35.1953 54.0004 35.1953C49.4445 35.1953 44.3318 38.0537 43.868 44.3216C43.1854 52.4231 44.3283 57.5121 47.6802 61.1137C47.6189 61.6569 47.4731 62.2424 47.1165 62.4467C45.1452 63.1247 43.3733 63.8181 41.7931 64.527C40.7691 64.0916 39.6531 63.6679 38.4642 63.2595C38.3913 63.1979 38.3031 63.0129 38.2494 62.6816C40.8114 59.8386 41.6858 55.8668 41.1642 49.6183C40.7884 44.564 36.6732 42.2642 33.0105 42.2642C29.344 42.2642 25.2327 44.5679 24.8568 49.6183C24.3352 55.8668 25.2097 59.8384 27.7717 62.6816C27.718 63.0129 27.6298 63.1979 27.5569 63.2595C20.9642 65.5286 17.1791 68.0365 15.9979 70.9295C15.346 72.1892 14.924 73.6608 14.7477 75.3058C14.7324 75.3674 14.7285 75.4252 14.7285 75.4792C14.7285 77.9023 16.6922 79.8747 19.1083 79.8747H31.0934C31.8681 81.7932 33.7473 83.1492 35.9334 83.1492H72.0732C74.2593 83.1492 76.1347 81.7932 76.9132 79.8747H88.8983C91.3106 79.8747 93.2743 77.9023 93.2743 75.4792C93.2743 75.4252 93.2704 75.3674 93.2666 75.3097L93.2656 75.3098ZM17.8688 75.5486C18.0107 74.3158 18.3252 73.2333 18.8008 72.3357C18.8276 72.2818 18.8545 72.224 18.8775 72.1701C19.3147 71.0452 21.1747 68.7685 28.6842 66.2066C28.734 66.1873 28.7877 66.1681 28.8338 66.145C29.781 65.7058 30.9163 64.6541 30.9507 62.1154C30.9546 61.6801 30.782 61.264 30.4713 60.9597C28.2546 58.81 27.5106 55.4931 27.9784 49.8767V49.8613C28.2047 46.7909 30.6631 45.4195 33.0026 45.4195C35.342 45.4195 37.8004 46.7948 38.0267 49.8613V49.8767C38.4985 55.4934 37.7506 58.8103 35.5338 60.9597C35.2231 61.2602 35.0506 61.6801 35.0544 62.1154C35.0889 64.6503 36.2241 65.7058 37.1714 66.145C37.2212 66.1681 37.2711 66.1873 37.3248 66.2066C37.5664 66.2875 37.8004 66.3722 38.0343 66.4531C35.0237 68.2483 33.1291 70.1514 32.3007 72.197C31.6065 73.5183 31.1233 75.04 30.8548 76.7197H19.1073C18.4592 76.7197 17.9071 76.1919 17.8688 75.5486ZM72.0721 79.9942H35.9294C34.8594 79.9942 33.9772 79.1814 33.8621 78.1374V78.1335C33.8583 78.0835 33.8506 78.0334 33.8506 77.9794C34.0386 76.296 34.4643 74.8244 35.1163 73.6032C35.147 73.5492 35.1738 73.4914 35.1968 73.4298C35.9255 71.5499 38.7789 68.6297 48.2324 65.3938C48.2823 65.3784 48.3322 65.3553 48.382 65.336C49.4904 64.8236 50.8212 63.5754 50.8595 60.5244C50.8634 60.0891 50.6908 59.673 50.3801 59.3687C47.3848 56.464 46.3723 52.0376 47.0013 44.5756V44.5563C47.312 40.2686 50.7407 38.3501 54.0006 38.3501C57.2605 38.3501 60.6892 40.2724 61.0037 44.564V44.5833C61.6327 52.0453 60.6202 56.468 57.6249 59.3803C57.3142 59.6808 57.1416 60.1007 57.1455 60.5322C57.1838 63.5833 58.5108 64.8315 59.6153 65.3438C59.6652 65.3669 59.715 65.3862 59.7649 65.4054C69.2226 68.6414 72.072 71.5615 72.8005 73.4376C72.8235 73.4992 72.8504 73.557 72.881 73.6148C73.533 74.8322 73.9588 76.3 74.1467 77.9873C74.1122 79.1006 73.192 79.9942 72.0721 79.9942ZM88.8935 76.7197H77.1422C76.8699 75.0363 76.3866 73.5184 75.6924 72.1971C74.8678 70.1515 72.9733 68.2484 69.9626 66.4532C70.1966 66.3685 70.4305 66.2876 70.6721 66.2067C70.7258 66.1874 70.7757 66.1681 70.8256 66.145C71.769 65.7097 72.9004 64.658 72.9425 62.1232C72.9502 61.6879 72.7776 61.2679 72.4631 60.9636C70.2426 58.8101 69.4985 55.4932 69.9702 49.8806V49.8613C70.1926 46.791 72.6549 45.4196 74.9944 45.4196C77.3338 45.4196 79.7922 46.7948 80.0185 49.8613V49.8768C80.4903 55.4935 79.7424 58.8104 77.5256 60.9597C77.2149 61.2602 77.0424 61.6801 77.0462 62.1155C77.0807 64.6503 78.2159 65.7059 79.1632 66.145C79.213 66.1681 79.2629 66.1874 79.3128 66.2067C86.8259 68.7724 88.6784 71.0452 89.1118 72.1702C89.1348 72.2279 89.1616 72.2857 89.1923 72.3435C89.6679 73.2373 89.9824 74.3121 90.1243 75.5487C90.0936 76.192 89.5417 76.7197 88.8935 76.7197Z" fill="#3860D2"/>
</g>
<defs>
<clipPath id="clip0_4454_2216">
<rect width="108" height="99" fill="white"/>
</clipPath>
</defs>
</svg>
