<svg width="77" height="76" viewBox="0 0 77 76" fill="none" xmlns="http://www.w3.org/2000/svg">
<g clip-path="url(#clip0_4454_2148)">
<path d="M25.9297 43.6929C27.1383 43.6929 28.1172 42.7089 28.1172 41.4939C28.1172 40.6087 28.8336 39.8913 29.7113 39.8913C30.5918 39.8913 31.3081 40.6115 31.3081 41.4939C31.3081 42.7089 32.287 43.6929 33.4956 43.6929C34.7043 43.6929 35.6831 42.7089 35.6831 41.4939C35.6831 38.1843 33.0035 35.4932 29.7113 35.4932C26.4191 35.4932 23.7422 38.187 23.7422 41.4939C23.7422 42.7089 24.7211 43.6929 25.9297 43.6929Z" fill="#3860D2"/>
<path d="M45.877 41.4939C45.877 40.6087 46.5933 39.8913 47.4711 39.8913C48.3515 39.8913 49.0652 40.6115 49.0652 41.4939C49.0652 42.7089 50.0441 43.6929 51.2527 43.6929C52.4613 43.6929 53.4402 42.7089 53.4402 41.4939C53.4402 38.1843 50.7605 35.4932 47.4711 35.4932C44.1816 35.4932 41.502 38.187 41.502 41.4939C41.502 42.7089 42.4808 43.6929 43.6895 43.6929C44.8981 43.6929 45.877 42.7089 45.877 41.4939Z" fill="#3860D2"/>
<path d="M68.1184 38.3905C64.7907 25.1384 53.7684 15.6356 40.6763 14.7341C39.2244 14.6379 37.7806 14.6379 36.3177 14.7341C23.2256 15.6357 12.2006 25.1468 8.88122 38.3905C8.87301 38.418 8.86481 38.4428 8.85934 38.473C8.20583 41.0185 7.875 43.6628 7.875 46.3376V47.1787C7.875 50.4581 10.5274 53.1245 13.7894 53.1245C17.0516 53.1245 19.7012 50.4581 19.7012 47.1787V42.7284C19.7012 39.5013 17.1281 36.8624 13.9371 36.7854C17.5164 26.8041 26.3208 19.836 36.6108 19.1295C37.8659 19.047 39.1319 19.047 40.3787 19.1295C50.6652 19.8387 59.4698 26.7984 63.0552 36.7882C59.867 36.8707 57.2939 39.5041 57.2939 42.7312V47.1816C57.2939 50.461 59.9463 53.1273 63.2056 53.1273C66.4649 53.1273 69.12 50.4609 69.12 47.1816V46.3404C69.12 43.663 68.7864 41.0132 68.1357 38.4786C68.1302 38.4512 68.122 38.4237 68.1138 38.3962L68.1184 38.3905ZM15.3286 42.7227V47.173C15.3286 48.0252 14.6396 48.7206 13.7919 48.7206C12.9443 48.7206 12.2525 48.0279 12.2525 47.173V46.3319C12.2525 44.5891 12.4138 42.8629 12.7392 41.1724H13.7919C14.6396 41.1724 15.3286 41.8678 15.3286 42.7199L15.3286 42.7227ZM64.75 47.173C64.75 48.0252 64.061 48.7206 63.2106 48.7206C62.3602 48.7206 61.6739 48.0279 61.6739 47.173V42.7227C61.6739 41.8706 62.363 41.1751 63.2106 41.1751H64.2633C64.586 42.8629 64.75 44.5892 64.75 46.3347V47.1758L64.75 47.173Z" fill="#3860D2"/>
<path d="M51.2729 52.5223H25.6816C24.473 52.5223 23.4941 53.5064 23.4941 54.7214C23.4941 63.0286 30.2153 69.7849 38.4783 69.7849C46.7414 69.7849 53.4625 63.0282 53.4625 54.7214C53.4625 53.5064 52.4837 52.5223 51.275 52.5223H51.2729ZM38.4762 65.3867C33.3766 65.3867 29.1053 61.75 28.0938 56.9205H48.8586C47.8469 61.7502 43.5758 65.3867 38.4762 65.3867Z" fill="#3860D2"/>
</g>
<defs>
<clipPath id="clip0_4454_2148">
<rect width="77" height="76" fill="white"/>
</clipPath>
</defs>
</svg>
