<svg width="64" height="69" viewBox="0 0 64 69" fill="none" xmlns="http://www.w3.org/2000/svg">
<g clip-path="url(#clip0_8_66)">
<mask id="mask0_8_66" style="mask-type:luminance" maskUnits="userSpaceOnUse" x="0" y="0" width="64" height="69">
<path d="M64 0H0V69H64V0Z" fill="white"/>
</mask>
<g mask="url(#mask0_8_66)">
<path d="M60.4556 37.293L56.6996 32.2001C56.6368 32.1143 56.603 32.0108 56.603 31.9045C56.603 31.7983 56.6368 31.6948 56.6996 31.609L60.4196 26.489C60.8385 25.9121 61.1142 25.2439 61.2242 24.5395C61.3342 23.8351 61.2752 23.1147 61.0522 22.4375C60.8291 21.7604 60.4484 21.1459 59.9413 20.6448C59.4342 20.1436 58.8153 19.7701 58.1356 19.555L52.0996 17.646C51.9987 17.6138 51.9105 17.5504 51.848 17.4648C51.7854 17.3793 51.7517 17.276 51.7516 17.17V10.842C51.7518 10.1288 51.5825 9.42577 51.2576 8.79084C50.9327 8.15592 50.4615 7.60732 49.8829 7.19027C49.3043 6.77323 48.6349 6.49969 47.9298 6.3922C47.2247 6.28471 46.5042 6.34635 45.8276 6.57205L39.8276 8.57205C39.7268 8.60578 39.6179 8.60652 39.5167 8.57415C39.4154 8.54178 39.3271 8.478 39.2646 8.39205L35.5446 3.27105C35.1292 2.69366 34.5814 2.22421 33.9472 1.902C33.3131 1.57978 32.6109 1.41418 31.8996 1.41905H31.8826C31.1689 1.41763 30.4654 1.58776 29.8312 1.91511C29.197 2.24247 28.6508 2.71745 28.2386 3.30005L24.5606 8.44805C24.499 8.53465 24.4114 8.59937 24.3105 8.63281C24.2097 8.66626 24.1008 8.66669 23.9996 8.63405L17.9796 6.67905C17.3015 6.45879 16.5808 6.40282 15.8768 6.51575C15.1728 6.62867 14.5057 6.90726 13.9305 7.32856C13.3553 7.74986 12.8884 8.3018 12.5684 8.93892C12.2483 9.57603 12.0842 10.2801 12.0896 10.993L12.1376 17.32C12.1385 17.4265 12.1055 17.5304 12.0432 17.6167C11.981 17.7031 11.8929 17.7673 11.7916 17.8L5.77262 19.755C5.09461 19.9755 4.47868 20.3539 3.97558 20.8591C3.47248 21.3642 3.09661 21.9817 2.87894 22.6606C2.66126 23.3395 2.60801 24.0604 2.72357 24.7639C2.83914 25.4675 3.1202 26.1335 3.54362 26.7071L7.29962 31.8C7.36243 31.8858 7.39629 31.9893 7.39629 32.0956C7.39629 32.2018 7.36243 32.3053 7.29962 32.391L3.57962 37.5111C3.16079 38.088 2.88502 38.7562 2.77505 39.4606C2.66508 40.165 2.72405 40.8854 2.94709 41.5626C3.17014 42.2397 3.55088 42.8542 4.05795 43.3553C4.56502 43.8565 5.18391 44.23 5.86362 44.445L11.8966 46.355C11.9976 46.3873 12.0857 46.4507 12.1483 46.5363C12.2108 46.6218 12.2445 46.7251 12.2446 46.8311V53.159C12.2444 53.8723 12.4138 54.5753 12.7387 55.2103C13.0636 55.8452 13.5347 56.3938 14.1133 56.8108C14.6919 57.2279 15.3614 57.5014 16.0664 57.6089C16.7715 57.7164 17.492 57.6547 18.1686 57.4291L24.1686 55.4291C24.2694 55.3953 24.3783 55.3946 24.4796 55.427C24.5808 55.4593 24.6691 55.5231 24.7316 55.6091L28.4516 60.73C28.8664 61.3071 29.4132 61.7765 30.0465 62.0991C30.6797 62.4216 31.381 62.5879 32.0916 62.584H32.1086C32.8239 62.5864 33.5292 62.4164 34.1649 62.0885C34.8006 61.7606 35.348 61.2843 35.7606 60.7001L39.4386 55.5541C39.5 55.4671 39.5874 55.402 39.6883 55.3682C39.7892 55.3344 39.8983 55.3336 39.9996 55.3661L46.0186 57.321C46.6967 57.5413 47.4175 57.5973 48.1215 57.4843C48.8255 57.3714 49.4925 57.0928 50.0677 56.6715C50.643 56.2502 51.1098 55.6983 51.4299 55.0612C51.7499 54.4241 51.914 53.72 51.9086 53.007L51.8606 46.68C51.8597 46.5736 51.8928 46.4697 51.955 46.3834C52.0172 46.297 52.1054 46.2328 52.2066 46.2001L58.2256 44.245C58.9036 44.0246 59.5196 43.6462 60.0227 43.141C60.5258 42.6359 60.9016 42.0184 61.1193 41.3395C61.337 40.6606 61.3902 39.9397 61.2747 39.2362C61.1591 38.5326 60.879 37.8666 60.4556 37.293ZM58.2636 40.423C58.192 40.65 58.067 40.8564 57.8991 41.0251C57.7312 41.1937 57.5253 41.3195 57.2986 41.392L51.2796 43.347C50.5719 43.5753 49.9555 44.0237 49.5206 44.6269C49.0856 45.2301 48.8547 45.9564 48.8616 46.7001L48.9096 53.0271C48.9114 53.2647 48.8567 53.4993 48.75 53.7116C48.6434 53.924 48.4878 54.1079 48.2961 54.2484C48.1044 54.3888 47.8821 54.4817 47.6475 54.5193C47.4129 54.557 47.1726 54.5384 46.9466 54.465L40.9286 52.51C40.221 52.2793 39.4581 52.2807 38.7513 52.514C38.0446 52.7473 37.4308 53.2004 36.9996 53.807L33.3196 58.954C33.1821 59.1483 33 59.3066 32.7886 59.4157C32.5771 59.5248 32.3426 59.5815 32.1046 59.5811C31.8678 59.5825 31.634 59.5271 31.423 59.4196C31.2119 59.312 31.0297 59.1555 30.8916 58.9631L27.1706 53.843C26.8468 53.3957 26.4214 53.0315 25.9294 52.7807C25.4374 52.5298 24.8929 52.3994 24.3406 52.4001C23.9623 52.4007 23.5865 52.4621 23.2276 52.5821L17.2276 54.5821C17.002 54.6574 16.7618 54.678 16.5266 54.6421C16.2915 54.6063 16.0683 54.5151 15.8754 54.376C15.6824 54.2369 15.5254 54.0539 15.4171 53.8421C15.3088 53.6304 15.2524 53.3959 15.2526 53.1581V46.8301C15.2549 46.0859 15.0189 45.3605 14.5791 44.7602C14.1393 44.1599 13.5189 43.7162 12.8086 43.494L6.77262 41.585C6.54589 41.5133 6.33948 41.3886 6.1704 41.2214C6.00132 41.0542 5.87443 40.8491 5.8002 40.6232C5.72596 40.3973 5.70651 40.1569 5.74344 39.922C5.78038 39.6871 5.87264 39.4643 6.01262 39.272L9.73162 34.153C10.1706 33.5524 10.4059 32.827 10.4032 32.0831C10.4005 31.3391 10.1599 30.6155 9.71662 30.018L5.95762 24.9261C5.81633 24.7349 5.72248 24.5129 5.68382 24.2784C5.64516 24.0439 5.66279 23.8035 5.73525 23.5771C5.80772 23.3507 5.93295 23.1448 6.10061 22.9763C6.26828 22.8078 6.47359 22.6816 6.69962 22.608L12.7186 20.653C13.4266 20.425 14.0431 19.9766 14.4783 19.3735C14.9134 18.7703 15.1445 18.0438 15.1376 17.3L15.0896 10.97C15.0878 10.7324 15.1425 10.4978 15.2492 10.2855C15.3559 10.0731 15.5115 9.88916 15.7031 9.74873C15.8948 9.60831 16.1172 9.51543 16.3518 9.47776C16.5864 9.44009 16.8266 9.4587 17.0526 9.53205L23.0706 11.4871C23.7779 11.7181 24.5406 11.7172 25.2473 11.4844C25.9541 11.2517 26.568 10.7992 26.9996 10.193L30.6796 5.04605C30.8176 4.85115 31.0005 4.6924 31.2129 4.58325C31.4253 4.4741 31.6608 4.41777 31.8996 4.41905C32.1365 4.41763 32.3702 4.473 32.5813 4.58053C32.7923 4.68805 32.9745 4.8446 33.1126 5.03705L36.8336 10.157C37.2696 10.7599 37.8869 11.2077 38.5953 11.4349C39.3038 11.6621 40.0663 11.6569 40.7716 11.42L46.7716 9.42005C46.9972 9.34473 47.2375 9.32414 47.4726 9.35998C47.7077 9.39581 47.931 9.48704 48.1239 9.62614C48.3168 9.76524 48.4739 9.94822 48.5822 10.16C48.6904 10.3717 48.7468 10.6062 48.7466 10.844V17.17C48.7443 17.9142 48.9803 18.6396 49.4201 19.2399C49.8599 19.8402 50.4804 20.2839 51.1906 20.5061L57.2236 22.4151C57.4503 22.4868 57.6568 22.6115 57.8258 22.7787C57.9949 22.9459 58.1218 23.151 58.196 23.3769C58.2703 23.6028 58.2897 23.8432 58.2528 24.0781C58.2159 24.313 58.1236 24.5358 57.9836 24.7281L54.2646 29.847C53.8257 30.4477 53.5904 31.1731 53.5931 31.917C53.5958 32.661 53.8363 33.3846 54.2796 33.982L58.0386 39.0741C58.1816 39.2644 58.2766 39.4863 58.3158 39.7211C58.3549 39.9559 58.3371 40.1966 58.2636 40.423ZM41.6896 24.99L38.0496 25.1101C38.4796 21.4701 37.1296 19.66 36.1896 18.8601C35.5664 18.3205 34.8079 17.9609 33.9957 17.8199C33.1835 17.679 32.3482 17.762 31.5796 18.06C31.0763 18.2571 30.6391 18.5928 30.3188 19.0282C29.9984 19.4636 29.808 19.9809 29.7696 20.5201L29.7196 21.65C29.6396 23.63 29.6096 23.92 29.1496 24.7001C28.6996 25.4601 27.2196 26.2001 25.8396 26.6901C25.5672 26.4313 25.2053 26.288 24.8296 26.2901H18.2596C17.8618 26.2901 17.4803 26.4481 17.199 26.7294C16.9177 27.0107 16.7596 27.3922 16.7596 27.7901V41.09C16.7596 41.4879 16.9177 41.8694 17.199 42.1507C17.4803 42.432 17.8618 42.59 18.2596 42.59H24.8296C25.1873 42.5896 25.5325 42.458 25.7996 42.2201L28.5096 43.2201C30.1255 43.8212 31.8356 44.1294 33.5596 44.1301H41.4896C42.5769 44.1277 43.6268 43.7329 44.4463 43.0182C45.2657 42.3035 45.7995 41.317 45.9496 40.2401L47.1896 31.24C47.2974 30.4575 47.2353 29.6608 47.0076 28.9044C46.7798 28.1479 46.3918 27.4494 45.87 26.8564C45.3481 26.2633 44.7046 25.7896 43.9832 25.4676C43.2618 25.1455 42.4796 24.9827 41.6896 24.99ZM44.2096 30.83L42.9796 39.8301C42.9295 40.1899 42.7512 40.5195 42.4774 40.7584C42.2037 40.9972 41.8529 41.1292 41.4896 41.1301H33.5596C32.1939 41.1323 30.8389 40.8884 29.5596 40.41L26.3296 39.21V29.6901C27.9496 29.18 30.6496 28.08 31.7396 26.22C32.5896 24.76 32.6296 23.83 32.7196 21.7801L32.7596 20.82C32.9666 20.751 33.1865 20.7296 33.4029 20.7573C33.6193 20.785 33.8267 20.8611 34.0096 20.98C35.1596 21.66 35.4496 23.66 34.7796 26.3C34.7236 26.526 34.7206 26.7618 34.7709 26.9891C34.8212 27.2163 34.9235 27.4289 35.0696 27.6101C35.2114 27.7964 35.3968 27.9449 35.6096 28.0426C35.8224 28.1402 36.0559 28.184 36.2896 28.17L41.7396 27.99C42.0958 27.9873 42.4484 28.0619 42.773 28.2086C43.0975 28.3554 43.3864 28.5708 43.6196 28.84C43.8554 29.1098 44.0301 29.4272 44.132 29.7706C44.2338 30.1141 44.2603 30.4754 44.2096 30.83Z" fill="#F97316"/>
</g>
</g>
<defs>
<clipPath id="clip0_8_66">
<rect width="64" height="69" fill="white"/>
</clipPath>
</defs>
</svg>
