<svg width="66" height="83" viewBox="0 0 66 83" fill="none" xmlns="http://www.w3.org/2000/svg">
<g clip-path="url(#clip0_8_39)">
<mask id="mask0_8_39" style="mask-type:luminance" maskUnits="userSpaceOnUse" x="0" y="0" width="66" height="83">
<path d="M66 0H0V83H66V0Z" fill="white"/>
</mask>
<g mask="url(#mask0_8_39)">
<path d="M33.577 4.98659C33.3384 4.96676 33.0984 4.99941 32.8735 5.08226C32.6487 5.16512 32.4445 5.29621 32.2751 5.46643L6.50027 31.3942C4.4348 33.4722 4.4348 36.89 6.50027 38.9679L27.28 59.8606C29.3454 61.9386 32.7426 61.9386 34.8081 59.8606L60.57 33.9426C60.7386 33.7718 60.8683 33.5663 60.9501 33.3401C61.0319 33.1139 61.0639 32.8726 61.0437 32.6327L58.9748 8.58866C58.94 8.20093 58.7708 7.83784 58.4969 7.56286C58.223 7.28787 57.8617 7.11848 57.4762 7.08429L33.577 4.98659ZM34.0637 8.35847L55.8069 10.2681L57.6954 32.1432L32.4684 57.5198C31.6564 58.3367 30.4187 58.3367 29.6067 57.5198L8.83993 36.6141C8.02793 35.7972 8.02793 34.552 8.83993 33.7351L34.0637 8.35847ZM47.341 12.5603C45.7522 12.5603 44.1609 13.1628 42.9582 14.3727C40.5528 16.7927 40.5528 20.778 42.9582 23.198C45.3636 25.6179 49.3088 25.6179 51.7141 23.198C54.1195 20.778 54.1195 16.7927 51.7141 14.3727C50.5115 13.1627 48.9298 12.5603 47.341 12.5603ZM47.341 15.8641C48.0781 15.8641 48.8152 16.151 49.3874 16.7266C50.5317 17.8778 50.5317 19.6929 49.3874 20.8441C48.2431 21.9954 46.4389 21.9954 45.2946 20.8441C44.1503 19.6929 44.1503 17.8778 45.2946 16.7266C45.8668 16.1509 46.6039 15.8641 47.341 15.8641ZM38.9202 25.9733C38.4842 25.9733 38.0659 26.147 37.7568 26.4564L36.3292 27.8927C35.3644 27.0043 34.0547 26.6977 32.8487 26.8487C31.59 27.0062 30.3794 27.6276 29.4005 28.6124C28.4216 29.5973 27.8136 30.8023 27.657 32.0686C27.5004 33.3349 27.8427 34.7292 28.8172 35.7096L29.668 36.5655L30.522 37.4247C30.6923 37.5961 30.7968 37.8431 30.7411 38.2936C30.6857 38.7441 30.4268 39.3296 29.9354 39.8239C29.4441 40.3182 28.8621 40.5784 28.4143 40.6345C27.9666 40.6903 27.7178 40.5855 27.5474 40.414L26.9577 39.8239C26.9329 39.7949 26.9071 39.7668 26.8803 39.7396L24.2958 37.1426C23.9866 36.8333 23.5683 36.6598 23.1324 36.6598C22.6964 36.6598 22.2782 36.8333 21.969 37.1426C21.8153 37.2968 21.6934 37.48 21.6102 37.6817C21.527 37.8833 21.4842 38.0996 21.4842 38.3179C21.4842 38.5363 21.527 38.7525 21.6102 38.9541C21.6934 39.1558 21.8153 39.339 21.969 39.4932L23.3805 40.9198L21.9593 42.3496C21.8052 42.5038 21.6829 42.6872 21.5994 42.8892C21.5159 43.0912 21.4729 43.3077 21.4729 43.5265C21.4729 43.7452 21.5159 43.9618 21.5994 44.1638C21.6829 44.3657 21.8052 44.5491 21.9593 44.7034C22.2685 45.0126 22.6867 45.1862 23.1227 45.1862C23.5587 45.1862 23.9769 45.0126 24.2861 44.7034L25.7588 43.2217C26.6644 43.8488 27.7793 44.0617 28.8171 43.9318C30.0758 43.7742 31.2832 43.1496 32.2622 42.1648C33.2411 41.1799 33.8587 39.9651 34.0153 38.6988C34.1719 37.4325 33.8329 36.0512 32.8583 35.0708L32.0624 34.27C32.0446 34.2501 32.0263 34.2306 32.0076 34.2116L31.1407 33.3556C30.9703 33.1842 30.8787 32.9372 30.9344 32.4867C30.9899 32.0362 31.2488 31.4474 31.7401 30.9532C32.2314 30.4589 32.8005 30.2019 33.2483 30.1459C33.6961 30.09 33.9545 30.1948 34.1249 30.3663L37.3668 33.6377C37.5201 33.7923 37.7022 33.9149 37.9027 33.9986C38.1031 34.0823 38.318 34.1254 38.5351 34.1254C38.7521 34.1254 38.967 34.0823 39.1675 33.9986C39.3679 33.9149 39.55 33.7923 39.7033 33.6377C39.8574 33.4834 39.9797 33.3001 40.0632 33.0981C40.1467 32.8961 40.1897 32.6795 40.1897 32.4608C40.1897 32.2421 40.1467 32.0255 40.0632 31.8235C39.9797 31.6215 39.8574 31.4381 39.7033 31.2839L38.6624 30.2366L40.0835 28.8101C40.2377 28.6558 40.36 28.4724 40.4435 28.2705C40.527 28.0685 40.5699 27.8519 40.5699 27.6332C40.5699 27.4144 40.527 27.1978 40.4435 26.9959C40.36 26.7939 40.2377 26.6105 40.0835 26.4562C39.7744 26.1469 39.3562 25.9733 38.9202 25.9733Z" fill="#F97316"/>
</g>
</g>
<defs>
<clipPath id="clip0_8_39">
<rect width="66" height="83" fill="white"/>
</clipPath>
</defs>
</svg>
