<svg width="77" height="94" viewBox="0 0 77 94" fill="none" xmlns="http://www.w3.org/2000/svg">
<g clip-path="url(#clip0_4454_2183)">
<path d="M22.2757 37.7253V41.6046C22.2757 47.8195 27.3582 52.875 33.6061 52.875H38.0084C44.2564 52.875 49.3387 47.8194 49.3387 41.6046V37.7253C50.3299 37.0216 50.9828 35.8724 50.9828 34.5736C50.9828 33.2681 50.3265 32.1155 49.3251 31.4117C49.1781 25.5639 45.3158 20.5521 39.7307 18.8897C39.1121 17.3292 37.5911 16.2208 35.8069 16.2208C34.0226 16.2208 32.4983 17.3325 31.8796 18.8897C26.2912 20.5659 22.4287 25.5739 22.2817 31.4152C21.2871 32.119 20.6309 33.2682 20.6309 34.5737C20.6309 35.8759 21.2845 37.0215 22.2757 37.7253ZM32.9463 33.4143H47.0793C47.7219 33.4143 48.2448 33.9345 48.2448 34.5736C48.2448 35.2128 47.7219 35.733 47.0793 35.733H24.5306C23.888 35.733 23.3651 35.2128 23.3651 34.5736C23.3651 33.9345 23.888 33.4143 24.5306 33.4143H32.9463ZM46.6042 41.6047C46.6042 46.3203 42.7488 50.1553 38.008 50.1553H33.6057C28.865 50.1553 25.0095 46.3203 25.0095 41.6047V38.453H46.6045L46.6042 41.6047ZM46.5529 30.6946H40.0315L40.0349 21.8786C43.6545 23.3915 46.1701 26.754 46.5529 30.6946ZM35.807 18.9411C36.6308 18.9411 37.3007 19.6075 37.3007 20.4268V30.698H34.3167L34.3133 20.4233C34.3133 19.6073 34.9833 18.9411 35.807 18.9411ZM31.579 21.882V30.6945H25.0542C25.4404 26.7608 27.956 23.4017 31.579 21.882Z" fill="#3860D2"/>
<path d="M66.4086 67.1717H66.0566V56.8361L67.1572 55.0172C67.4306 54.5616 67.4169 53.9904 67.1161 53.5518L63.8247 48.724C63.5717 48.35 63.1479 48.1256 62.6933 48.1256C62.2421 48.1256 61.8183 48.35 61.5619 48.7206L58.2704 53.5348C57.9696 53.9734 57.956 54.5446 58.2294 54.9967L59.3334 56.8327V63.5474C57.8945 61.4565 56.0692 59.6342 53.9535 58.213C53.9399 58.2028 53.9262 58.196 53.9159 58.1858C53.8886 58.1688 53.8647 58.1484 53.8373 58.1314C52.2548 57.0911 50.5561 56.2819 48.7958 55.7277C46.851 55.1089 44.8002 54.7928 42.7051 54.7928H29.3613C27.2559 54.7928 25.2016 55.109 23.2602 55.7277C21.4863 56.2887 19.791 57.0979 18.2255 58.1348C12.5859 61.8645 9.22266 68.1032 9.22266 74.825V85.4601C9.22266 86.2115 9.83447 86.82 10.5898 86.82H59.19C60.1026 87.687 61.3296 88.2242 62.6866 88.2242C65.4893 88.2242 67.7691 85.9565 67.7691 83.1686L67.7759 68.5324C67.7759 67.7811 67.164 67.1717 66.4086 67.1717ZM62.6933 51.9098L64.3647 54.3611L63.5171 55.7585C63.3872 55.9693 63.3222 56.2141 63.3222 56.4589V67.1653H62.0713V56.4589C62.0713 56.2141 62.0029 55.9727 61.8764 55.7619L61.0253 54.3509L62.6933 51.9098ZM58.3832 67.3214C57.9321 67.5424 57.6108 67.9946 57.6108 68.5318V83.1679C57.6108 83.4875 57.6484 83.7969 57.7065 84.0995H52.1591V73.5358C52.1591 71.1865 50.6381 69.2009 48.5327 68.453C49.8008 64.8695 52.0191 62.1191 53.1503 60.9903C55.3686 62.6494 57.1699 64.8362 58.3832 67.3214ZM23.3456 58.5838C24.6136 59.869 27.6249 63.33 28.8143 68.117H26.3158C25.1024 64.3397 22.9047 61.2458 21.2743 59.5051C21.9442 59.1515 22.6347 58.8456 23.3456 58.5838ZM25.3588 70.8369H30.4584C30.4686 70.8369 30.4755 70.8403 30.4857 70.8403C30.5062 70.8403 30.5267 70.8369 30.5472 70.8369H41.5224C41.5429 70.8369 41.5634 70.8403 41.5839 70.8403C41.5942 70.8403 41.601 70.8369 41.6112 70.8369H46.7108C48.2079 70.8369 49.4247 72.0472 49.4247 73.5364V84.1001H22.6454V73.5364C22.6454 72.0473 23.8617 70.8369 25.3588 70.8369ZM48.7239 58.5873C49.4314 58.8457 50.1219 59.1551 50.7952 59.5087C49.1648 61.2494 46.9671 64.3399 45.7571 68.1171H43.2586C44.4446 63.3335 47.4525 59.8756 48.7239 58.5873ZM42.7083 57.5129C43.7439 57.5129 44.7659 57.6115 45.764 57.7883C44.0208 59.8112 41.4539 63.4389 40.449 68.117H31.6133C30.6119 63.4353 28.0415 59.8076 26.2984 57.7883C27.2998 57.6115 28.3218 57.5129 29.3609 57.5129H42.7083ZM11.9599 74.8254C11.9599 69.355 14.5644 64.2757 18.936 61.0083C20.0811 62.1575 22.2788 64.8978 23.5366 68.4507C21.4312 69.1986 19.9102 71.1842 19.9102 73.5335V84.0971H11.96L11.9599 74.8254ZM65.0409 83.1687C65.0409 84.4573 63.9882 85.5044 62.6928 85.5044C61.3973 85.5044 60.3446 84.4573 60.3446 83.1687V69.8921H65.0409V83.1687Z" fill="#3860D2"/>
<path d="M33.8289 82.6617C34.0887 82.8963 34.4168 83.0119 34.7415 83.0119C35.1175 83.0119 35.4901 82.8589 35.7567 82.5631L39.5678 78.3507C39.8925 77.9903 40.0019 77.4871 39.8549 77.0247C39.7079 76.5658 39.3251 76.2156 38.85 76.1101L37.288 75.7668L38.9081 73.9206C39.4038 73.3562 39.3456 72.4961 38.7783 72.0031C38.2109 71.5101 37.3461 71.5679 36.8505 72.1323L33.7163 75.7056C33.3984 76.066 33.2959 76.5692 33.4463 77.0247C33.5967 77.4803 33.9795 77.8237 34.4511 77.9291L35.9756 78.2657L33.7334 80.7443C33.2207 81.2985 33.2684 82.1585 33.8289 82.6617Z" fill="#3860D2"/>
</g>
<defs>
<clipPath id="clip0_4454_2183">
<rect width="77" height="94" fill="white"/>
</clipPath>
</defs>
</svg>
