<svg width="95" height="92" viewBox="0 0 95 92" fill="none" xmlns="http://www.w3.org/2000/svg">
<g clip-path="url(#clip0_4454_2201)">
<path d="M82.5862 36.5917C82.5862 34.0422 80.5215 31.9673 77.9846 31.9673H64.0179V28.0684C64.0179 22.4879 59.4973 17.9484 53.9375 17.9484H41.0504C35.4974 17.9484 30.9804 22.4881 30.9804 28.0684V31.9673H17.0136C14.4767 31.9673 12.4121 34.0422 12.4121 36.5917L12.4121 78.7129C12.4121 82.8423 15.7553 86.2022 19.8643 86.2022H75.1301C79.2391 86.2022 82.5824 82.8423 82.5824 78.7129V36.5917H82.5862ZM33.6085 28.0684C33.6085 23.9424 36.9483 20.586 41.054 20.586L53.9412 20.586C58.0502 20.586 61.3934 23.9424 61.3934 28.0684V31.9673H58.7653V28.0684C58.7653 25.3969 56.5995 23.2271 53.9412 23.2271L41.054 23.2271C38.3956 23.2271 36.2365 25.4003 36.2365 28.0684V31.9673H33.6085V28.0684ZM38.8611 31.9673V28.0684C38.8611 26.8547 39.8428 25.8647 41.054 25.8647L53.9412 25.8647C55.1522 25.8647 56.1408 26.8512 56.1408 28.0684V31.9673L38.8611 31.9673ZM15.0403 36.5917C15.0403 35.4966 15.9242 34.6083 17.0139 34.6083H77.9849C79.0745 34.6083 79.9585 35.4966 79.9585 36.5917V44.8946C79.9585 50.9498 75.0566 55.8756 69.0317 55.8756L52.3558 55.8756V54.4517C52.3558 52.2479 50.5678 50.4544 48.3716 50.4544H46.6308C44.4346 50.4544 42.6466 52.2479 42.6466 54.4517V55.8756H25.9707C19.9454 55.8756 15.044 50.9494 15.044 44.8946V36.5917H15.0403ZM45.271 57.198V54.4518C45.271 53.7025 45.8817 53.0956 46.6306 53.0956H48.3713C49.1203 53.0956 49.7309 53.7059 49.7309 54.4518V59.9373C49.7309 60.69 49.1202 61.3036 48.3713 61.3036H46.6306C45.8816 61.3036 45.271 60.6899 45.271 59.9373V57.198ZM79.9581 78.7164C79.9581 81.3913 77.7923 83.5645 75.1339 83.5645H19.8681C17.2064 83.5645 15.044 81.388 15.044 78.7164L15.044 52.9191C17.5134 56.3026 21.4841 58.5165 25.9707 58.5165H42.6466V59.937C42.6466 62.1442 44.4346 63.941 46.6308 63.941H48.3716C50.5678 63.941 52.3558 62.1442 52.3558 59.937V58.5165L69.0317 58.5165C73.5186 58.5165 77.4893 56.306 79.9585 52.9191L79.9581 78.7164Z" fill="#3860D2"/>
</g>
<defs>
<clipPath id="clip0_4454_2201">
<rect width="95" height="92" fill="white"/>
</clipPath>
</defs>
</svg>
