<svg width="62" height="63" viewBox="0 0 62 63" fill="none" xmlns="http://www.w3.org/2000/svg">
<path fill-rule="evenodd" clip-rule="evenodd" d="M45.7031 24.5105L17.2871 40.9165L15.8809 38.4808L44.2969 22.0748L45.7031 24.5105Z" fill="white"/>
<path fill-rule="evenodd" clip-rule="evenodd" d="M43.0809 22.7777C37.3528 26.0848 35.5805 33.8244 38.6816 39.1957L39.3848 40.4136L41.8205 39.0073L41.1173 37.7895C38.7627 33.7112 40.1559 27.714 44.4872 25.2133L45.7045 24.5105L44.2983 22.0748L43.0809 22.7777Z" fill="white"/>
<path fill-rule="evenodd" clip-rule="evenodd" d="M44.4868 25.2132C38.7587 28.5203 31.1699 26.1855 28.0687 20.814L27.3655 19.5961L29.8012 18.1899L30.5044 19.4077C32.859 23.486 38.7493 25.2782 43.0806 22.7775L44.2979 22.0746L45.7042 24.5103L44.4868 25.2132Z" fill="white"/>
</svg>
