<svg width="65" height="64" viewBox="0 0 65 64" fill="none" xmlns="http://www.w3.org/2000/svg">
<path fill-rule="evenodd" clip-rule="evenodd" d="M45.6081 21.8734L21.2474 44.1052L19.3418 42.0171L43.7025 19.7853L45.6081 21.8734Z" fill="white"/>
<path fill-rule="evenodd" clip-rule="evenodd" d="M42.6575 20.7385C37.747 25.2199 37.6753 33.2002 41.8777 37.805L42.8305 38.8491L44.9186 36.9434L43.9658 35.8994C40.7752 32.4032 40.8499 26.2153 44.5631 22.8266L45.6066 21.8743L43.701 19.7862L42.6575 20.7385Z" fill="white"/>
<path fill-rule="evenodd" clip-rule="evenodd" d="M44.5642 22.8259C39.6537 27.3073 31.7001 26.6508 27.4977 22.046L26.5449 21.002L28.633 19.0963L29.5858 20.1404C32.7766 23.6367 38.9454 24.1265 42.6586 20.7378L43.7021 19.7855L45.6077 21.8736L44.5642 22.8259Z" fill="white"/>
</svg>
