<svg width="18" height="14" viewBox="0 0 18 14" fill="none" xmlns="http://www.w3.org/2000/svg">
<path fill-rule="evenodd" clip-rule="evenodd" d="M17.6017 7.16835L0.103832 7.42269L0.0820312 5.92285L17.5799 5.66851L17.6017 7.16835Z" fill="black"/>
<path fill-rule="evenodd" clip-rule="evenodd" d="M16.8312 5.6793C13.3041 5.73057 10.467 8.87423 10.515 12.1818L10.5259 12.9317L12.0258 12.9099L12.0149 12.16C11.9784 9.64875 14.1859 7.21791 16.853 7.17914L17.6025 7.16825L17.5807 5.6684L16.8312 5.6793Z" fill="black"/>
<path fill-rule="evenodd" clip-rule="evenodd" d="M16.8532 7.17941C13.3261 7.23068 10.3988 4.17076 10.3507 0.863202L10.3398 0.113281L11.8397 0.0914805L11.8506 0.841401C11.8871 3.35272 14.1643 5.71834 16.8314 5.67957L17.581 5.66868L17.6028 7.16852L16.8532 7.17941Z" fill="black"/>
</svg>
