<svg width="131" height="38" viewBox="0 0 131 38" fill="none" xmlns="http://www.w3.org/2000/svg">
<path d="M28.6371 4.97432C25.0619 1.65791 19.9311 0 13.246 0H3.04121C1.36159 0 0 1.38027 0 3.08293V34.917C0 36.6197 1.36159 38 3.04121 38H12.817C19.9669 38 25.2856 36.2792 28.7714 32.8357C32.2571 29.3929 34 24.718 34 18.8104C33.9994 12.9028 32.2118 8.29074 28.6371 4.97432ZM22.748 18.719L13.2908 33.5791C13.0432 33.968 12.4489 33.7902 12.4489 33.3275V21.0139C12.4489 20.631 12.1428 20.3207 11.7651 20.3207H7.91124C7.54906 20.3207 7.33007 19.9142 7.52637 19.6052L16.9836 4.74509C17.2312 4.35616 17.8255 4.53398 17.8255 4.9967V17.3103C17.8255 17.6932 18.1316 18.0035 18.5093 18.0035H22.3631C22.7259 18.0035 22.9443 18.41 22.748 18.719Z" fill="url(#paint0_linear_12_104)"/>
<path d="M50.632 30H43.268V9.53203H50.436C56.484 9.53203 60.656 13.704 60.656 19.808C60.656 25.828 56.568 30 50.632 30ZM50.1 12.836H46.852V26.696H50.296C54.384 26.696 56.876 24.064 56.876 19.808C56.876 15.468 54.328 12.836 50.1 12.836ZM65.1986 13.396C64.0226 13.396 63.0986 12.472 63.0986 11.324C63.0986 10.176 64.0226 9.28003 65.1986 9.28003C66.3186 9.28003 67.2426 10.176 67.2426 11.324C67.2426 12.472 66.3186 13.396 65.1986 13.396ZM63.4906 30V16.168H66.9066V30H63.4906ZM69.6519 22.776C69.6519 18.744 72.2839 15.72 76.2319 15.72C78.3039 15.72 79.9279 16.588 80.7399 18.072L80.9359 16.168H84.0999V29.3C84.0999 33.92 81.3279 36.804 76.8479 36.804C72.8719 36.804 70.1559 34.536 69.7359 30.84H73.1519C73.3759 32.632 74.7479 33.696 76.8479 33.696C79.1999 33.696 80.7119 32.212 80.7119 29.916V27.62C79.8439 28.908 78.1359 29.72 76.1479 29.72C72.2279 29.72 69.6519 26.78 69.6519 22.776ZM73.0959 22.692C73.0959 25.016 74.5799 26.752 76.8199 26.752C79.1719 26.752 80.6279 25.1 80.6279 22.692C80.6279 20.34 79.1999 18.716 76.8199 18.716C74.5519 18.716 73.0959 20.424 73.0959 22.692ZM89.3431 13.396C88.1671 13.396 87.2431 12.472 87.2431 11.324C87.2431 10.176 88.1671 9.28003 89.3431 9.28003C90.4631 9.28003 91.3871 10.176 91.3871 11.324C91.3871 12.472 90.4631 13.396 89.3431 13.396ZM87.6351 30V16.168H91.0511V30H87.6351ZM106.284 21.628H98.6684V30H95.0844V9.53203H107.74V12.836H98.6684V18.408H106.284V21.628ZM112.175 13.396C110.999 13.396 110.075 12.472 110.075 11.324C110.075 10.176 110.999 9.28003 112.175 9.28003C113.295 9.28003 114.219 10.176 114.219 11.324C114.219 12.472 113.295 13.396 112.175 13.396ZM110.467 30V16.168H113.883V30H110.467ZM119.82 30H115.928L120.688 23.224L115.928 16.168H119.904L122.956 20.872L125.896 16.168H129.732L125.028 23.168L129.592 30H125.672L122.732 25.436L119.82 30Z" fill="black"/>
<defs>
<linearGradient id="paint0_linear_12_104" x1="17" y1="0" x2="17" y2="38" gradientUnits="userSpaceOnUse">
<stop stop-color="#F97316"/>
<stop offset="1" stop-color="#111827"/>
</linearGradient>
</defs>
</svg>
