<svg width="23" height="21" viewBox="0 0 23 21" fill="none" xmlns="http://www.w3.org/2000/svg">
<path fill-rule="evenodd" clip-rule="evenodd" d="M19.0896 6.61107L4.35177 16.047L3.54297 14.7837L18.2808 5.34781L19.0896 6.61107Z" fill="#3860D2"/>
<path fill-rule="evenodd" clip-rule="evenodd" d="M17.6503 5.75221C14.6795 7.65425 13.9246 11.821 15.7082 14.6068L16.1126 15.2385L17.3759 14.4297L16.9715 13.798C15.6173 11.6829 16.2127 8.45375 18.4591 7.01548L19.0904 6.61129L18.2816 5.34803L17.6503 5.75221Z" fill="#3860D2"/>
<path fill-rule="evenodd" clip-rule="evenodd" d="M18.4583 7.01564C15.4875 8.91767 11.3873 7.85937 9.60362 5.07353L9.19922 4.44189L10.4625 3.63309L10.8669 4.26472C12.2211 6.37992 15.4031 7.19064 17.6495 5.75237L18.2808 5.34819L19.0896 6.61145L18.4583 7.01564Z" fill="#3860D2"/>
</svg>
