<svg width="23" height="21" viewBox="0 0 23 21" fill="none" xmlns="http://www.w3.org/2000/svg">
<path fill-rule="evenodd" clip-rule="evenodd" d="M19.0896 6.61104L4.35177 16.047L3.54297 14.7837L18.2808 5.34778L19.0896 6.61104Z" fill="#F97316"/>
<path fill-rule="evenodd" clip-rule="evenodd" d="M17.6503 5.7522C14.6795 7.65424 13.9246 11.821 15.7082 14.6068L16.1126 15.2385L17.3759 14.4297L16.9715 13.798C15.6173 11.6829 16.2127 8.45374 18.4591 7.01547L19.0904 6.61128L18.2816 5.34802L17.6503 5.7522Z" fill="#F97316"/>
<path fill-rule="evenodd" clip-rule="evenodd" d="M18.4583 7.01561C15.4875 8.91764 11.3873 7.85934 9.60362 5.0735L9.19922 4.44186L10.4625 3.63306L10.8669 4.26469C12.2211 6.37989 15.4031 7.19061 17.6495 5.75234L18.2808 5.34816L19.0896 6.61142L18.4583 7.01561Z" fill="#F97316"/>
</svg>
