<svg width="78" height="79" viewBox="0 0 78 79" fill="none" xmlns="http://www.w3.org/2000/svg">
<mask id="mask0_9_91" style="mask-type:luminance" maskUnits="userSpaceOnUse" x="0" y="0" width="78" height="79">
<path d="M77.2324 0.564209H0.232422V78.5642H77.2324V0.564209Z" fill="white"/>
</mask>
<g mask="url(#mask0_9_91)">
<path d="M71.0447 31.5106C70.6209 31.0851 69.9838 31.0851 69.5599 31.5106C66.8037 34.3489 62.1364 35.9107 57.6109 37.4726C56.9738 37.6867 56.3394 37.9694 55.7023 38.1835C55.1363 38.3976 54.4991 38.609 53.9359 38.8231C53.6543 38.469 53.441 38.1122 53.2277 37.9722C52.8039 37.6895 52.5195 37.8295 52.3801 37.8295H52.2379C47.4993 39.9595 43.329 41.9469 39.6519 43.9342C42.5503 41.45 45.8753 38.8945 49.6213 36.196H49.6924L49.7635 36.1247C50.1873 35.8419 50.4717 35.2024 50.1873 34.2801C50.1162 34.1373 50.0451 33.926 49.974 33.7119C55.1366 29.9485 59.4485 27.3244 63.5505 25.4087C63.8322 25.3374 64.0455 25.126 64.1166 24.8405C64.1877 24.5578 64.1877 24.2723 64.1166 24.061C63.9033 23.5641 63.2689 23.2814 62.7029 23.4928C58.6013 25.3373 54.0761 28.0356 48.5608 32.0102C48.2081 31.7275 47.7132 31.442 47.2893 31.442C47.0077 31.442 46.6522 31.5134 46.4417 31.7247C44.1093 33.4294 41.703 35.3453 39.2282 37.3327C40.2891 35.5595 41.279 33.7834 42.0556 32.0102C42.4794 31.1593 41.4896 30.5911 41.1368 30.3056H41.0657C42.9032 26.1169 45.1673 21.3623 48.0657 15.4723C48.2079 15.2582 48.279 14.9755 48.2079 14.6927C48.1368 14.41 47.9263 14.1959 47.713 14.0531C47.4997 13.9077 47.2181 13.839 46.9364 13.979C46.6548 14.0504 46.3704 14.2617 46.2993 14.5472C43.6825 19.801 41.4211 24.6978 39.2279 29.5949C38.733 29.4522 38.0247 29.3122 37.601 29.8776L36.8928 31.2254L36.54 31.7936C35.0553 34.4205 33.5705 37.0474 32.0147 39.7426C33.1467 35.4824 33.8522 31.2961 34.276 27.108C34.3471 26.8253 34.2049 26.3971 33.71 26.043L33.6389 25.9716C33.5678 25.9002 33.4967 25.9002 33.3573 25.8289C33.9233 21.0719 33.9944 15.5378 33.5706 9.43341C33.4995 8.93657 33.0045 8.51111 32.3674 8.51111C31.8014 8.65384 31.4487 9.07931 31.4487 9.64752C31.8725 15.4667 31.8014 20.7207 31.3065 25.3347C30.7405 25.2633 29.8928 25.1919 29.6795 25.9742V26.117C28.6213 33.4981 26.9944 40.2427 24.167 48.7601C23.8143 48.6888 23.3904 48.6174 23.035 48.6174C22.6112 48.546 22.2584 48.6174 22.1162 48.9001C16.8143 54.7935 11.5098 61.3239 5.99453 68.6334C5.85235 68.8475 5.78125 69.0589 5.78125 69.3443C5.78125 69.5584 5.92343 69.8412 6.13399 69.9125C6.34727 70.0553 6.62891 70.1266 6.84218 70.1266C7.12655 70.0553 7.26874 69.9125 7.41093 69.7698C12.4313 63.0255 17.3096 56.9237 22.4721 51.1728C23.8147 52.946 26.9975 55.5729 28.9772 56.5666C23.2487 63.7363 18.4415 69.6987 13.8453 75.1636C13.5637 75.5891 13.5637 76.0145 13.9164 76.44L14.0586 76.5827C14.1297 76.6541 14.2719 76.7255 14.4824 76.7255C14.6246 76.7255 14.9063 76.7255 15.1906 76.4428C20.9875 69.4157 26.3633 62.6712 30.8888 57.0664C31.031 57.0664 31.1705 56.9237 31.3127 56.7123C31.7365 56.2155 31.7365 55.3646 31.3127 54.4423C37.6045 49.828 46.0211 45.9958 54.2923 42.5181C54.7161 42.304 54.8583 41.8785 54.8583 41.6672C54.8583 41.4531 54.7872 41.1704 54.7161 40.8163C55.2821 40.6022 55.777 40.4622 56.343 40.2481C56.9801 40.034 57.6145 39.8226 58.2516 39.6085C62.9903 37.9753 67.9397 36.2734 71.0483 33.1497C71.2616 32.9356 71.33 32.6529 71.33 32.3701C71.33 32.0078 71.1869 31.7248 71.0447 31.5106ZM47.146 33.1438C47.4987 33.2152 48.7019 34.6343 48.7019 35.1311C42.6917 39.3199 37.6713 43.3661 33.4307 47.5521C31.5221 49.3967 29.6818 51.384 27.8443 53.5141C27.3494 53.16 26.8545 52.7345 26.3596 52.3063C30.7428 46.7011 37.5294 40.3852 47.146 33.1438ZM29.5396 53.7998C30.9532 52.1665 32.5091 50.536 34.3466 48.8314L34.4888 48.7601C39.5091 45.6363 45.0952 42.7981 52.5194 39.4633C52.8011 39.8174 53.1565 40.8111 53.296 41.3079C45.1669 44.7857 36.1161 48.689 29.5396 53.7998ZM27.8443 47.9091V48.0491C26.8544 49.1141 25.9356 50.2506 25.0169 51.3128L24.9458 51.2442C28.1286 42.0156 29.9661 34.7771 31.027 27.1106C31.4509 27.182 32.2302 27.3247 32.654 27.4647C32.0852 33.7835 30.6005 40.2426 27.8443 47.9091ZM35.4813 40.6678C33.6438 42.301 32.0879 43.7202 30.7426 45.0679C33.4305 40.7391 35.9051 36.1963 38.2375 31.9358L38.7324 31.0849C39.2274 31.299 40.0039 31.6531 40.4305 31.9358C38.9457 35.0595 37.1055 38.1121 35.4813 40.6678Z" fill="#F97316"/>
</g>
</svg>
