<svg width="81" height="90" viewBox="0 0 81 90" fill="none" xmlns="http://www.w3.org/2000/svg">
<mask id="mask0_9_85" style="mask-type:luminance" maskUnits="userSpaceOnUse" x="0" y="0" width="81" height="90">
<path d="M80.3105 0.533203H0.310547V89.5332H80.3105V0.533203Z" fill="white"/>
</mask>
<g mask="url(#mask0_9_85)">
<path d="M23.0013 71.6869H55.2058V20.1243H22.9986V71.6869H23.0013ZM36.9596 59.2055C36.4405 59.8821 35.4708 60.0064 34.7935 59.483C34.1189 58.9623 33.9951 57.9896 34.5168 57.3102L42.3146 47.2338H32.7413C31.8875 47.2338 31.1917 46.5386 31.1917 45.6795C31.1917 45.2856 31.3367 44.9261 31.5791 44.6513L40.7916 32.611C41.3107 31.9317 42.2778 31.8022 42.9577 32.3203C43.6349 32.841 43.7641 33.8111 43.2502 34.493L35.8767 44.1249H45.4717V44.1302C45.8011 44.1302 46.1331 44.236 46.4151 44.4527C47.0897 44.9734 47.2135 45.9488 46.6918 46.6255L36.9598 59.1996L36.9596 59.2055ZM45.0813 17.021V11.6419H33.1279V17.021H45.0813ZM30.0341 17.021V10.0877C30.0341 9.23131 30.7271 8.53345 31.5836 8.53345H46.6308C47.4846 8.53345 48.1803 9.2286 48.1803 10.0877V17.021H56.7606C57.6144 17.021 58.3102 17.7162 58.3102 18.5753V73.2439C58.3102 74.1003 57.6171 74.7981 56.7606 74.7981H21.4597C20.6059 74.7981 19.9102 74.103 19.9102 73.2439V18.5753C19.9102 17.7189 20.6032 17.021 21.4597 17.021H30.04H30.0341Z" fill="#F97316"/>
</g>
</svg>
