<svg width="84" height="88" viewBox="0 0 84 88" fill="none" xmlns="http://www.w3.org/2000/svg">
<mask id="mask0_9_76" style="mask-type:luminance" maskUnits="userSpaceOnUse" x="0" y="0" width="84" height="88">
<path d="M83.5332 0.418823H0.533203V87.4188H83.5332V0.418823Z" fill="white"/>
</mask>
<g mask="url(#mask0_9_76)">
<path fill-rule="evenodd" clip-rule="evenodd" d="M38.7321 24.3839C38.1102 24.3839 37.5502 24.7681 37.3262 25.3502L33.0731 36.3553C32.8933 36.8193 32.9522 37.3453 33.2352 37.7561C33.5152 38.1669 33.9809 38.4151 34.479 38.4151H38.6054L35.4369 49.6948C35.2453 50.3716 35.543 51.0867 36.1561 51.4295C36.7662 51.7694 37.5325 51.6423 38.0041 51.1252L53.7025 33.8462C54.1063 33.4059 54.2094 32.7646 53.9677 32.2179C53.726 31.6683 53.1866 31.3166 52.5883 31.3166H48.8392L51.7571 26.7096C52.0519 26.2426 52.0696 25.6516 51.8043 25.1669C51.539 24.6852 51.0321 24.3838 50.4838 24.3838L38.7321 24.3839ZM36.6837 35.389L39.7667 27.41H47.7362L44.8182 32.0171C44.5205 32.484 44.5029 33.072 44.7681 33.5567C45.0334 34.0414 45.5403 34.3428 46.0915 34.3428H49.1716L40.0703 44.3577L42.048 37.3096C42.1777 36.8545 42.0863 36.3639 41.8004 35.9886C41.5145 35.6104 41.0694 35.3887 40.5978 35.3887L36.6837 35.389Z" fill="#F97316"/>
<path fill-rule="evenodd" clip-rule="evenodd" d="M54.0189 54.84C52.3536 55.9364 51.2394 57.5204 51.095 59.1959C51.9998 59.8874 52.5864 60.9808 52.5864 62.2102C52.5864 63.0613 52.3064 63.8474 51.8319 64.4798C52.3064 65.1122 52.5864 65.8982 52.5864 66.7493C52.5864 68.8386 50.8975 70.5319 48.8137 70.5319H48.6221C47.953 73.1413 45.5892 75.0711 42.7773 75.0711H41.2682C38.4563 75.0711 36.0925 73.1413 35.4234 70.5319H35.2318C33.148 70.5319 31.4591 68.8386 31.4591 66.7493C31.4591 65.8982 31.7391 65.1121 32.2137 64.4798C31.7391 63.8473 31.4591 63.0613 31.4591 62.2102C31.4591 60.9808 32.0457 59.8874 32.9506 59.1959C32.8061 57.5204 31.692 55.9364 30.0267 54.84C24.0758 50.9215 20.1406 44.1662 20.1406 36.4883C20.1406 24.3719 29.9377 14.5492 42.0225 14.5492C54.1073 14.5492 63.9043 24.3719 63.9043 36.4883C63.9043 44.1655 59.9701 50.9212 54.0189 54.84ZM23.1594 36.4883C23.1594 26.0415 31.6036 17.5753 42.0231 17.5753C52.4426 17.5753 60.8867 26.0415 60.8867 36.4883C60.8867 43.1049 57.5001 48.9293 52.3626 52.3102C50.3112 53.6607 48.5516 55.8062 48.1478 58.4274H35.8985C35.4947 55.8062 33.7351 53.6607 31.6837 52.3102C26.5463 48.9295 23.1594 43.1048 23.1594 36.4883ZM34.4776 62.21C34.4776 61.7934 34.8166 61.4535 35.2322 61.4535H48.814C49.2296 61.4535 49.5685 61.7934 49.5685 62.21C49.5685 62.6267 49.2296 62.9666 48.814 62.9666H35.2322C34.8166 62.9666 34.4776 62.6267 34.4776 62.21ZM34.4776 66.7492C34.4776 66.3325 34.8166 65.9926 35.2322 65.9926H48.814C49.2296 65.9926 49.5685 66.3325 49.5685 66.7492C49.5685 67.1658 49.2296 67.5057 48.814 67.5057H35.2322C34.8166 67.5057 34.4776 67.1658 34.4776 66.7492ZM41.2685 72.0448C40.1514 72.0448 39.1759 71.4361 38.6542 70.5318H45.3921C44.8704 71.436 43.8947 72.0448 42.7777 72.0448H41.2685Z" fill="#F97316"/>
</g>
</svg>
