<svg width="64" height="62" viewBox="0 0 64 62" fill="none" xmlns="http://www.w3.org/2000/svg">
<mask id="mask0_9_97" style="mask-type:luminance" maskUnits="userSpaceOnUse" x="0" y="0" width="64" height="62">
<path d="M63.5742 0.207642H0.574219V61.2076H63.5742V0.207642Z" fill="white"/>
</mask>
<g mask="url(#mask0_9_97)">
<path d="M31.1834 45.4497C30.8791 45.4497 30.5726 45.374 30.2907 45.2114C29.4339 44.7193 29.1408 43.6303 29.6352 42.7774L33.4519 36.1946H27.597C26.9571 36.1946 26.3665 35.8561 26.0466 35.3038C25.7267 34.7515 25.7267 34.0746 26.0466 33.5222L31.4137 24.2673C31.9081 23.4167 33.0021 23.1249 33.8589 23.6149C34.7158 24.107 35.0088 25.196 34.5144 26.0489L30.6977 32.6318H36.5527C37.1925 32.6318 37.7831 32.9703 38.1031 33.5225C38.4207 34.0748 38.4207 34.7518 38.1031 35.3041L32.736 44.559C32.4049 45.1313 31.8031 45.4497 31.1834 45.4497Z" fill="#F97316"/>
<path d="M32.0737 61.1364C31.8142 61.1364 31.5547 61.0808 31.3131 60.9672L26.5679 58.7492C17.9862 54.7362 12.2366 46.3964 11.5653 36.983L10.0552 15.836C10.0194 15.3327 10.2007 14.8361 10.5541 14.4731C10.9076 14.1101 11.4043 13.9097 11.9054 13.9297C19.5611 14.2215 25.9619 12.2506 30.924 8.10851C31.5885 7.554 32.5594 7.554 33.2238 8.10851C38.186 12.2506 44.5936 14.2239 52.2424 13.9297C52.748 13.9097 53.2402 14.1079 53.5959 14.4731C53.9494 14.8361 54.1306 15.3327 54.0948 15.836L52.5847 36.983C51.9113 46.3964 46.1639 54.7386 37.5821 58.7492L32.8369 60.9672C32.5953 61.0785 32.3358 61.1364 32.0763 61.1364H32.0737ZM13.7642 17.5152L15.1378 36.729C15.7195 44.8574 20.6817 52.0594 28.0912 55.5222L32.0757 57.3839L36.0602 55.5222C43.4701 52.0571 48.4339 44.8574 49.0135 36.729L50.3872 17.5152C43.2412 17.4417 37.0936 15.5065 32.0753 11.7475C27.0573 15.5066 20.9117 17.444 13.7658 17.5152H13.7642Z" fill="#F97316"/>
</g>
</svg>
