<svg width="130" height="135" viewBox="0 0 130 135" fill="none" xmlns="http://www.w3.org/2000/svg">
<g clip-path="url(#clip0_4454_2065)">
<path d="M73.5935 118.007C60.4909 120.359 47.2521 117.468 36.3259 109.857C25.3937 102.258 18.0804 90.8551 15.729 77.7524C13.3776 64.6497 16.2681 51.411 23.8684 40.4867C35.2447 24.134 55.2121 16.1372 74.7403 20.1061L73.8396 24.5301C56.0824 20.9186 37.9305 28.1964 27.5746 43.0679C20.6624 53.0037 18.0351 65.0364 20.174 76.955C22.313 88.8736 28.9598 99.2415 38.8962 106.154C48.8326 113.067 60.8647 115.694 72.7833 113.555C84.7019 111.416 95.0698 104.769 101.982 94.8324C112.352 79.9263 112.845 60.3363 103.23 44.9293L107.063 42.5388C117.632 59.4774 117.093 81.0203 105.692 97.414C98.092 108.338 86.6906 115.662 73.584 118.014L73.5935 118.007Z" fill="white"/>
<path d="M70.5564 101.083C61.9708 102.624 53.308 100.726 46.1528 95.7512C31.3805 85.4648 27.7241 65.0903 37.9977 50.3092C45.1118 40.0831 57.6568 34.7519 69.9606 36.7071L69.2537 41.1717C58.647 39.4796 47.8357 44.0748 41.7143 52.8885C32.8554 65.6226 36.0066 83.1821 48.7406 92.04C54.9079 96.3306 62.3801 97.9621 69.7661 96.6366C77.1559 95.3105 83.5902 91.1832 87.8812 85.0157C94.0143 76.2 94.5633 64.4653 89.2907 55.1207L93.2194 52.9075C99.3425 63.7626 98.6947 77.3802 91.5805 87.6056C86.6053 94.7571 79.1279 99.5517 70.5538 101.09L70.5564 101.083Z" fill="white"/>
<path d="M67.5184 84.1579C63.4545 84.8872 59.3613 83.9946 55.9645 81.6318C48.9719 76.767 47.2414 67.1245 52.1067 60.1352C53.9649 57.4641 56.5517 55.4918 59.6113 54.407L61.1169 58.661C58.9608 59.429 57.1247 60.83 55.8123 62.7165C52.3736 67.6595 53.599 74.4876 58.5419 77.9265C60.9409 79.5954 63.8407 80.2299 66.7167 79.7137C69.5965 79.1969 72.0941 77.5899 73.7598 75.1955C75.0722 73.309 75.7551 71.0989 75.7177 68.8118L80.2298 68.7441C80.2752 71.9824 79.3174 75.1149 77.4571 77.7743C75.1036 81.1573 71.5668 83.431 67.5026 84.1604L67.5184 84.1579Z" fill="white"/>
<path d="M66.6419 70.242L62.9324 67.6614L80.9184 41.8078L77.1604 34.1362C76.7987 33.4034 76.872 32.5291 77.3305 31.8555L89.377 14.5495C89.8187 13.9146 90.561 13.5393 91.347 13.5847C92.1271 13.6194 92.8294 14.0608 93.2045 14.7356L97.3514 22.1867L106.111 23.6943C106.866 23.8326 107.516 24.339 107.807 25.0489C108.109 25.7606 108.013 26.5755 107.583 27.2082L95.6922 44.3004C95.2221 44.9761 94.4372 45.3352 93.615 45.2645L84.6308 44.3845L66.6419 70.242ZM85.0022 39.8845L92.73 40.6408L101.841 27.5445L95.5168 26.449C94.8403 26.3284 94.263 25.92 93.9261 25.3256L91.0123 20.102L81.7972 33.3481L85.0022 39.8845Z" fill="white"/>
<path d="M30.7024 141.23L29.9369 141.368C29.9052 141.271 29.8609 141.188 29.8039 141.119C29.7468 141.049 29.6796 140.992 29.6022 140.95C29.5248 140.907 29.4392 140.879 29.3454 140.866C29.2528 140.852 29.1552 140.855 29.0527 140.873C28.8674 140.907 28.7143 140.982 28.5934 141.098C28.4722 141.214 28.3894 141.366 28.3451 141.554C28.3005 141.741 28.3005 141.959 28.345 142.207C28.3908 142.462 28.4671 142.67 28.574 142.83C28.6821 142.99 28.8128 143.102 28.9662 143.165C29.1195 143.229 29.2865 143.245 29.4671 143.213C29.5685 143.194 29.6598 143.164 29.7413 143.122C29.8238 143.079 29.8943 143.026 29.9527 142.963C30.0108 142.899 30.0554 142.825 30.0863 142.742C30.1183 142.66 30.1345 142.569 30.1348 142.47L30.9009 142.337C30.9106 142.504 30.8895 142.672 30.8377 142.839C30.7868 143.004 30.7057 143.159 30.5945 143.303C30.4841 143.445 30.3438 143.568 30.1734 143.67C30.004 143.772 29.8045 143.843 29.575 143.884C29.2557 143.941 28.9573 143.92 28.6797 143.821C28.4033 143.722 28.1677 143.548 27.973 143.3C27.7793 143.052 27.6476 142.734 27.5778 142.345C27.5077 141.955 27.5215 141.609 27.6192 141.309C27.7169 141.009 27.8787 140.765 28.1046 140.576C28.3304 140.387 28.6005 140.264 28.9151 140.207C29.1225 140.17 29.3199 140.164 29.5075 140.191C29.6962 140.217 29.8693 140.274 30.0269 140.361C30.1842 140.447 30.3205 140.563 30.4355 140.708C30.5518 140.853 30.6407 141.027 30.7024 141.23ZM31.6485 143.461L31.1668 140.777L31.8886 140.648L31.9726 141.116L32.0006 141.111C32.0196 140.936 32.0792 140.795 32.1792 140.689C32.2791 140.582 32.4042 140.515 32.5545 140.488C32.5918 140.482 32.6324 140.477 32.6763 140.474C32.7203 140.471 32.7593 140.47 32.7934 140.473L32.9119 141.133C32.8751 141.129 32.8251 141.128 32.7619 141.131C32.6987 141.134 32.6414 141.14 32.5902 141.149C32.4806 141.169 32.3871 141.211 32.3094 141.274C32.2327 141.336 32.1769 141.413 32.1418 141.506C32.1079 141.599 32.1008 141.7 32.1205 141.809L32.393 143.328L31.6485 143.461ZM34.7701 142.955C34.4939 143.005 34.2462 142.992 34.0269 142.916C33.8086 142.838 33.6273 142.706 33.4831 142.519C33.3387 142.331 33.2411 142.095 33.1903 141.812C33.1407 141.536 33.1508 141.284 33.2206 141.056C33.2903 140.828 33.412 140.639 33.5857 140.487C33.7605 140.336 33.9796 140.236 34.2429 140.189C34.42 140.157 34.59 140.156 34.7529 140.186C34.9167 140.214 35.0658 140.275 35.2003 140.367C35.3359 140.459 35.4512 140.585 35.546 140.745C35.6406 140.904 35.7084 141.097 35.7494 141.326L35.7861 141.53L33.5194 141.937L33.4366 141.476L35.0024 141.195C34.9832 141.087 34.9429 140.997 34.8814 140.922C34.82 140.848 34.7437 140.795 34.6526 140.763C34.5625 140.73 34.4632 140.723 34.3549 140.743C34.2419 140.763 34.1464 140.807 34.0684 140.875C33.9914 140.942 33.9363 141.023 33.903 141.119C33.8695 141.214 33.8617 141.315 33.8796 141.421L33.9583 141.86C33.9822 141.993 34.0272 142.103 34.0935 142.191C34.161 142.279 34.2448 142.341 34.3451 142.377C34.4454 142.413 34.5579 142.42 34.6826 142.397C34.7653 142.383 34.8389 142.357 34.9035 142.322C34.968 142.286 35.0206 142.241 35.0612 142.185C35.1017 142.13 35.1288 142.066 35.1423 141.994L35.839 141.916C35.8338 142.087 35.788 142.245 35.7018 142.388C35.6166 142.529 35.4951 142.65 35.3373 142.749C35.1805 142.847 34.9914 142.916 34.7701 142.955ZM37.2532 142.508C37.0819 142.539 36.9239 142.536 36.7793 142.501C36.6344 142.464 36.5124 142.394 36.4132 142.291C36.315 142.186 36.25 142.045 36.2182 141.868C36.1914 141.718 36.1963 141.588 36.2329 141.477C36.2695 141.366 36.3294 141.271 36.4127 141.192C36.496 141.114 36.5948 141.048 36.7092 140.995C36.8247 140.941 36.9477 140.897 37.0782 140.86C37.2314 140.816 37.3546 140.778 37.4476 140.747C37.5404 140.714 37.6058 140.68 37.6436 140.643C37.6815 140.606 37.6953 140.559 37.6851 140.502L37.6832 140.492C37.6633 140.381 37.613 140.302 37.5322 140.253C37.4526 140.205 37.3493 140.193 37.2223 140.215C37.0883 140.239 36.9871 140.288 36.9185 140.362C36.8497 140.434 36.8105 140.517 36.8007 140.61L36.1021 140.678C36.1078 140.509 36.1513 140.355 36.2325 140.218C36.3134 140.08 36.4292 139.964 36.5796 139.871C36.731 139.776 36.9139 139.71 37.1283 139.671C37.2774 139.644 37.4233 139.636 37.5659 139.647C37.7096 139.657 37.8411 139.689 37.9603 139.744C38.0807 139.798 38.1821 139.877 38.2645 139.981C38.3468 140.084 38.4022 140.216 38.4308 140.375L38.7558 142.186L38.0497 142.313L37.9829 141.94L37.9619 141.944C37.9339 142.036 37.8895 142.12 37.8288 142.197C37.7678 142.273 37.6899 142.338 37.595 142.393C37.4999 142.446 37.386 142.484 37.2532 142.508ZM37.3742 141.956C37.4837 141.936 37.5765 141.897 37.6527 141.839C37.7286 141.78 37.7838 141.709 37.8182 141.625C37.8525 141.542 37.8613 141.454 37.8443 141.359L37.7932 141.074C37.7726 141.094 37.7431 141.113 37.7046 141.134C37.6671 141.152 37.6242 141.171 37.576 141.191C37.5276 141.209 37.479 141.227 37.4304 141.244C37.3816 141.26 37.3373 141.275 37.2975 141.288C37.2125 141.316 37.1398 141.35 37.0796 141.39C37.0194 141.43 36.9755 141.477 36.9479 141.531C36.9202 141.584 36.9126 141.646 36.9251 141.715C36.9433 141.817 36.9939 141.888 37.0769 141.928C37.1609 141.967 37.26 141.976 37.3742 141.956ZM40.2795 139.142L40.3798 139.701L38.7632 139.991L38.6629 139.432L40.2795 139.142ZM38.9145 138.723L39.659 138.589L40.1081 141.092C40.1204 141.161 40.1405 141.212 40.1684 141.247C40.1961 141.281 40.2299 141.302 40.2699 141.31C40.3111 141.318 40.3567 141.318 40.4068 141.309C40.4418 141.303 40.4762 141.293 40.5101 141.281C40.5438 141.268 40.5696 141.258 40.5877 141.251L40.8042 141.784C40.769 141.802 40.719 141.825 40.6541 141.853C40.5895 141.881 40.5091 141.906 40.413 141.926C40.2348 141.966 40.0733 141.97 39.9283 141.94C39.7845 141.909 39.6649 141.842 39.5697 141.74C39.4744 141.639 39.4116 141.499 39.3812 141.323L38.9145 138.723ZM42.4501 141.577C42.174 141.627 41.9263 141.613 41.7069 141.537C41.4886 141.46 41.3073 141.328 41.1631 141.141C41.0187 140.952 40.9211 140.717 40.8703 140.434C40.8207 140.158 40.8309 139.906 40.9006 139.678C40.9704 139.45 41.0921 139.26 41.2658 139.109C41.4406 138.957 41.6596 138.858 41.923 138.811C42.1001 138.779 42.27 138.778 42.4329 138.808C42.5967 138.836 42.7459 138.896 42.8803 138.989C43.016 139.081 43.1312 139.207 43.226 139.367C43.3206 139.526 43.3884 139.719 43.4294 139.947L43.4661 140.152L41.1994 140.559L41.1166 140.097L42.6825 139.816C42.6633 139.709 42.6229 139.618 42.5615 139.544C42.5 139.47 42.4237 139.417 42.3327 139.385C42.2425 139.352 42.1433 139.345 42.0349 139.364C41.9219 139.385 41.8264 139.429 41.7484 139.497C41.6714 139.564 41.6163 139.645 41.583 139.741C41.5496 139.836 41.5418 139.937 41.5596 140.043L41.6384 140.482C41.6622 140.615 41.7073 140.725 41.7736 140.813C41.841 140.901 41.9249 140.962 42.0252 140.999C42.1255 141.035 42.2379 141.042 42.3626 141.019C42.4453 141.004 42.519 140.979 42.5835 140.943C42.6481 140.908 42.7006 140.862 42.7412 140.807C42.7818 140.752 42.8088 140.688 42.8223 140.616L43.5191 140.537C43.5138 140.709 43.4681 140.867 43.3819 141.009C43.2966 141.151 43.1751 141.271 43.0174 141.371C42.8606 141.469 42.6715 141.537 42.4501 141.577ZM45.1556 141.083C44.9517 141.119 44.7577 141.1 44.5734 141.025C44.3901 140.948 44.2317 140.816 44.0982 140.628C43.9656 140.439 43.8725 140.195 43.8188 139.896C43.7636 139.588 43.7672 139.323 43.8296 139.102C43.8919 138.879 43.996 138.702 44.1421 138.571C44.2892 138.439 44.4611 138.355 44.658 138.32C44.8083 138.293 44.9382 138.296 45.0476 138.329C45.1579 138.361 45.2508 138.41 45.3261 138.474C45.4024 138.537 45.4634 138.602 45.5089 138.669L45.5317 138.665L45.2902 137.319L46.0329 137.186L46.6752 140.765L45.9412 140.896L45.8641 140.467L45.8326 140.472C45.811 140.553 45.7748 140.636 45.7239 140.721C45.6739 140.804 45.6026 140.879 45.5098 140.945C45.4182 141.011 45.3001 141.057 45.1556 141.083ZM45.2852 140.448C45.4053 140.426 45.5008 140.375 45.5718 140.295C45.6437 140.214 45.6912 140.11 45.7141 139.983C45.7383 139.856 45.736 139.713 45.7073 139.553C45.6787 139.393 45.6317 139.259 45.5663 139.149C45.5009 139.039 45.4205 138.96 45.3251 138.911C45.2297 138.862 45.122 138.848 45.002 138.87C44.8797 138.892 44.7825 138.943 44.7106 139.025C44.6386 139.106 44.5916 139.21 44.5696 139.335C44.5476 139.461 44.5506 139.601 44.5784 139.756C44.6064 139.912 44.6527 140.046 44.7174 140.158C44.783 140.269 44.8632 140.351 44.958 140.404C45.0538 140.455 45.1629 140.47 45.2852 140.448ZM48.4404 140.448L47.798 136.869L48.5425 136.735L48.784 138.081L48.8068 138.077C48.8264 137.999 48.8604 137.917 48.9088 137.831C48.9581 137.744 49.0284 137.667 49.1196 137.599C49.2118 137.529 49.333 137.481 49.4833 137.454C49.679 137.419 49.8688 137.438 50.0527 137.51C50.2363 137.582 50.396 137.712 50.5319 137.899C50.6675 138.085 50.7629 138.332 50.8181 138.639C50.8718 138.939 50.8689 139.2 50.8092 139.424C50.7504 139.646 50.6478 139.825 50.5014 139.961C50.356 140.095 50.1813 140.181 49.9774 140.217C49.8329 140.243 49.7057 140.241 49.5958 140.212C49.487 140.182 49.3941 140.137 49.3171 140.076C49.2398 140.014 49.1776 139.949 49.1304 139.88L49.0972 139.886L49.1744 140.316L48.4404 140.448ZM48.9283 138.975C48.9569 139.135 49.004 139.27 49.0696 139.381C49.1352 139.492 49.2159 139.573 49.3117 139.624C49.4073 139.674 49.5151 139.689 49.6351 139.667C49.7563 139.645 49.8529 139.594 49.9249 139.512C49.9966 139.43 50.0434 139.325 50.0652 139.199C50.0879 139.071 50.0853 138.929 50.0572 138.772C50.0294 138.617 49.9834 138.485 49.9192 138.375C49.855 138.265 49.7749 138.184 49.6791 138.133C49.5833 138.082 49.4743 138.067 49.3519 138.089C49.2308 138.111 49.134 138.161 49.0616 138.24C48.9904 138.319 48.9432 138.422 48.92 138.547C48.8969 138.673 48.8996 138.815 48.9283 138.975ZM52.1089 140.829C52.0145 140.846 51.9246 140.854 51.8392 140.854C51.7551 140.854 51.6843 140.848 51.6267 140.836L51.6948 140.25C51.7869 140.261 51.8682 140.262 51.9385 140.251C52.01 140.241 52.0683 140.214 52.1133 140.169C52.1594 140.125 52.1913 140.058 52.2088 139.968L52.2321 139.847L50.7736 137.258L51.5566 137.118L52.4661 138.99L52.4941 138.984L52.7013 136.912L53.4895 136.771L52.98 139.933C52.9558 140.086 52.9102 140.224 52.8432 140.347C52.7776 140.471 52.6848 140.573 52.5648 140.655C52.4449 140.738 52.293 140.796 52.1089 140.829ZM56.9893 136.282C56.95 136.143 56.8703 136.045 56.7503 135.986C56.6303 135.927 56.4794 135.913 56.2976 135.946C56.1741 135.968 56.073 136.004 55.9942 136.055C55.9152 136.104 55.8584 136.162 55.8239 136.231C55.7905 136.3 55.7807 136.372 55.7945 136.449C55.8036 136.514 55.8271 136.567 55.8648 136.61C55.9036 136.652 55.9524 136.686 56.0111 136.712C56.0696 136.736 56.1355 136.755 56.2089 136.768C56.282 136.78 56.3592 136.788 56.4404 136.792L56.7757 136.811C56.9381 136.818 57.0898 136.839 57.2307 136.873C57.3717 136.908 57.4976 136.96 57.6084 137.028C57.7192 137.096 57.8111 137.182 57.8843 137.288C57.9586 137.394 58.0097 137.521 58.0376 137.67C58.0757 137.89 58.0539 138.09 57.9721 138.27C57.8912 138.449 57.755 138.602 57.5635 138.728C57.373 138.852 57.1321 138.94 56.8408 138.993C56.5518 139.045 56.2922 139.045 56.062 138.995C55.8329 138.945 55.6427 138.844 55.4916 138.692C55.3414 138.538 55.2403 138.334 55.1882 138.077L55.9205 137.946C55.9502 138.064 56.0025 138.158 56.0775 138.228C56.1535 138.296 56.2464 138.341 56.3563 138.364C56.4671 138.385 56.5877 138.383 56.7182 138.36C56.8464 138.337 56.9543 138.298 57.042 138.244C57.1308 138.19 57.1955 138.125 57.236 138.049C57.2765 137.973 57.289 137.892 57.2736 137.806C57.2591 137.725 57.2231 137.662 57.1655 137.616C57.1091 137.569 57.032 137.535 56.9342 137.513C56.8376 137.491 56.7212 137.475 56.5851 137.467L56.1778 137.439C55.8629 137.42 55.604 137.348 55.4012 137.223C55.1984 137.099 55.0739 136.904 55.0276 136.639C54.9875 136.423 55.0112 136.223 55.0987 136.04C55.1873 135.857 55.326 135.702 55.5147 135.574C55.7035 135.446 55.9283 135.359 56.1893 135.312C56.455 135.265 56.695 135.269 56.9094 135.324C57.1249 135.379 57.3025 135.478 57.4423 135.62C57.582 135.762 57.6728 135.939 57.7145 136.152L56.9893 136.282ZM59.6622 135.663L59.7625 136.223L58.146 136.513L58.0456 135.953L59.6622 135.663ZM58.2972 135.244L59.0417 135.111L59.4908 137.613C59.5032 137.682 59.5233 137.734 59.5511 137.769C59.5788 137.802 59.6126 137.823 59.6526 137.831C59.6938 137.84 59.7394 137.839 59.7895 137.83C59.8245 137.824 59.8589 137.815 59.8928 137.803C59.9265 137.79 59.9524 137.78 59.9704 137.773L60.1869 138.306C60.1517 138.324 60.1017 138.347 60.0368 138.374C59.9722 138.403 59.8918 138.427 59.7957 138.448C59.6176 138.487 59.456 138.492 59.311 138.461C59.1672 138.43 59.0477 138.364 58.9524 138.262C58.8571 138.16 58.7943 138.021 58.7639 137.845L58.2972 135.244ZM61.4035 138.174C61.2322 138.205 61.0742 138.202 60.9296 138.167C60.7847 138.13 60.6627 138.06 60.5635 137.957C60.4653 137.852 60.4003 137.711 60.3685 137.533C60.3418 137.384 60.3467 137.254 60.3832 137.143C60.4198 137.032 60.4797 136.937 60.563 136.858C60.6463 136.779 60.7451 136.714 60.8595 136.661C60.975 136.607 61.098 136.562 61.2286 136.526C61.3818 136.482 61.5049 136.444 61.5979 136.413C61.6907 136.38 61.7561 136.346 61.794 136.309C61.8318 136.272 61.8457 136.225 61.8354 136.168L61.8335 136.158C61.8137 136.047 61.7633 135.967 61.6826 135.919C61.6029 135.871 61.4996 135.858 61.3726 135.881C61.2387 135.905 61.1374 135.954 61.0688 136.028C61 136.1 60.9608 136.183 60.9511 136.276L60.2524 136.344C60.2581 136.174 60.3016 136.021 60.3828 135.884C60.4638 135.745 60.5795 135.63 60.7299 135.537C60.8813 135.442 61.0642 135.376 61.2786 135.337C61.4277 135.31 61.5736 135.302 61.7162 135.313C61.8599 135.323 61.9914 135.355 62.1106 135.41C62.231 135.464 62.3324 135.543 62.4148 135.647C62.4971 135.75 62.5525 135.882 62.5812 136.041L62.9061 137.852L62.2 137.979L62.1332 137.606L62.1123 137.61C62.0842 137.702 62.0398 137.786 61.9791 137.863C61.9181 137.939 61.8402 138.004 61.7453 138.058C61.6502 138.112 61.5363 138.15 61.4035 138.174ZM61.5245 137.622C61.634 137.602 61.7268 137.563 61.803 137.505C61.8789 137.446 61.9341 137.375 61.9685 137.291C62.0029 137.208 62.0116 137.12 61.9946 137.025L61.9435 136.74C61.9229 136.76 61.8934 136.779 61.8549 136.799C61.8174 136.818 61.7745 136.837 61.7263 136.857C61.6779 136.875 61.6294 136.893 61.5807 136.91C61.5319 136.926 61.4876 136.941 61.4479 136.954C61.3628 136.982 61.2901 137.016 61.2299 137.056C61.1697 137.096 61.1258 137.143 61.0982 137.197C61.0705 137.25 61.0629 137.311 61.0754 137.381C61.0936 137.483 61.1442 137.554 61.2272 137.594C61.3112 137.633 61.4103 137.642 61.5245 137.622ZM64.706 137.583C64.431 137.632 64.184 137.617 63.9651 137.536C63.747 137.453 63.5663 137.317 63.4228 137.128C63.2806 136.938 63.1851 136.707 63.1363 136.436C63.087 136.161 63.0967 135.91 63.1655 135.684C63.2353 135.456 63.3582 135.266 63.5342 135.114C63.7099 134.961 63.9336 134.861 64.205 134.812C64.4392 134.77 64.6519 134.776 64.8431 134.829C65.0343 134.883 65.195 134.977 65.3251 135.112C65.4552 135.248 65.5441 135.418 65.5918 135.624L64.8893 135.75C64.8454 135.619 64.7737 135.521 64.674 135.455C64.5752 135.387 64.4577 135.365 64.3214 135.39C64.2061 135.411 64.1109 135.46 64.036 135.539C63.962 135.616 63.9118 135.718 63.8854 135.845C63.8589 135.973 63.8609 136.121 63.8912 136.29C63.9219 136.461 63.9714 136.602 64.0395 136.714C64.1088 136.826 64.1922 136.905 64.2897 136.952C64.3872 137 64.4937 137.013 64.609 136.993C64.6941 136.977 64.7672 136.946 64.8285 136.899C64.891 136.852 64.9384 136.791 64.9708 136.717C65.0041 136.641 65.0193 136.554 65.0163 136.458L65.7189 136.332C65.744 136.539 65.7205 136.729 65.6483 136.903C65.5771 137.076 65.4619 137.222 65.3029 137.341C65.1438 137.459 64.9448 137.54 64.706 137.583ZM66.9081 136.336L66.7496 135.443L66.8579 135.424L67.5349 134.25L68.3895 134.097L67.4764 135.654L67.2999 135.685L66.9081 136.336ZM66.3721 137.23L65.7298 133.651L66.4743 133.517L67.1166 137.096L66.3721 137.23ZM68.0499 136.929L67.0501 135.901L67.452 135.286L68.9219 136.772L68.0499 136.929ZM70.1826 133.775L70.2829 134.334L68.6664 134.625L68.566 134.065L70.1826 133.775ZM68.8176 133.356L69.5621 133.223L70.0112 135.725C70.0236 135.794 70.0437 135.846 70.0715 135.881C70.0992 135.914 70.133 135.935 70.173 135.943C70.2142 135.952 70.2598 135.951 70.3099 135.942C70.3449 135.936 70.3793 135.927 70.4132 135.915C70.4469 135.902 70.4728 135.891 70.4908 135.885L70.7073 136.418C70.6721 136.436 70.6221 136.459 70.5572 136.486C70.4926 136.514 70.4122 136.539 70.3161 136.56C70.138 136.599 69.9764 136.604 69.8314 136.573C69.6876 136.542 69.5681 136.476 69.4728 136.374C69.3775 136.272 69.3147 136.133 69.2843 135.957L68.8176 133.356ZM71.1493 136.373L70.6676 133.688L71.4121 133.555L71.8938 136.239L71.1493 136.373ZM70.9795 133.275C70.8688 133.295 70.7672 133.275 70.6748 133.216C70.5834 133.156 70.5284 133.073 70.5097 132.97C70.4913 132.867 70.5146 132.772 70.5795 132.685C70.6453 132.596 70.7336 132.542 70.8443 132.522C70.955 132.502 71.056 132.522 71.1475 132.583C71.2399 132.642 71.2953 132.723 71.3137 132.825C71.3323 132.929 71.3087 133.025 71.2428 133.114C71.1779 133.202 71.0901 133.255 70.9795 133.275ZM74.5111 132.998L74.0543 135.851L73.2155 136.002L71.7952 133.486L72.5817 133.345L73.4839 135.165L73.5118 135.16L73.7229 133.14L74.5111 132.998ZM76.5201 135.463C76.2439 135.512 75.9962 135.499 75.7769 135.423C75.5586 135.346 75.3773 135.213 75.2331 135.026C75.0887 134.838 74.9911 134.603 74.9403 134.319C74.8907 134.043 74.9008 133.791 74.9706 133.564C75.0403 133.336 75.1621 133.146 75.3357 132.995C75.5105 132.843 75.7296 132.744 75.9929 132.696C76.17 132.665 76.34 132.664 76.5029 132.693C76.6667 132.722 76.8159 132.782 76.9503 132.875C77.0859 132.967 77.2012 133.093 77.296 133.253C77.3906 133.411 77.4584 133.605 77.4994 133.833L77.5361 134.038L75.2694 134.444L75.1866 133.983L76.7525 133.702C76.7332 133.595 76.6929 133.504 76.6314 133.43C76.57 133.355 76.4937 133.302 76.4026 133.271C76.3125 133.237 76.2132 133.231 76.1049 133.25C75.9919 133.27 75.8964 133.314 75.8184 133.383C75.7414 133.449 75.6863 133.531 75.653 133.627C75.6195 133.722 75.6117 133.823 75.6296 133.929L75.7083 134.367C75.7322 134.5 75.7772 134.611 75.8435 134.699C75.911 134.786 75.9948 134.848 76.0951 134.884C76.1954 134.92 76.3079 134.927 76.4326 134.905C76.5153 134.89 76.5889 134.865 76.6535 134.829C76.718 134.794 76.7706 134.748 76.8112 134.693C76.8517 134.637 76.8788 134.573 76.8923 134.501L77.589 134.423C77.5838 134.595 77.538 134.752 77.4518 134.895C77.3666 135.037 77.2451 135.157 77.0873 135.256C76.9305 135.354 76.7414 135.423 76.5201 135.463ZM80.8656 131.997C80.8264 131.858 80.7467 131.76 80.6267 131.701C80.5066 131.642 80.3557 131.628 80.174 131.661C80.0505 131.683 79.9493 131.719 79.8706 131.77C79.7916 131.819 79.7348 131.878 79.7002 131.946C79.6668 132.015 79.657 132.088 79.6708 132.164C79.68 132.229 79.7034 132.282 79.7411 132.325C79.78 132.367 79.8288 132.401 79.8875 132.427C79.946 132.451 80.0119 132.47 80.0852 132.483C80.1584 132.495 80.2355 132.503 80.3167 132.507L80.6521 132.526C80.8145 132.533 80.9662 132.554 81.1071 132.589C81.2481 132.623 81.3739 132.675 81.4847 132.743C81.5955 132.811 81.6875 132.898 81.7606 133.003C81.8349 133.109 81.886 133.237 81.914 133.385C81.9521 133.605 81.9303 133.805 81.8484 133.985C81.7676 134.165 81.6314 134.317 81.4399 134.443C81.2493 134.567 81.0084 134.656 80.7172 134.708C80.4282 134.76 80.1686 134.761 79.9383 134.711C79.7092 134.66 79.5191 134.559 79.3679 134.407C79.2177 134.254 79.1166 134.049 79.0646 133.792L79.7969 133.661C79.8265 133.779 79.8789 133.873 79.9539 133.943C80.0299 134.011 80.1228 134.056 80.2326 134.079C80.3434 134.1 80.4641 134.098 80.5946 134.075C80.7227 134.052 80.8307 134.013 80.9183 133.959C81.0072 133.905 81.0719 133.84 81.1124 133.764C81.1529 133.688 81.1654 133.607 81.1499 133.521C81.1355 133.44 81.0995 133.377 81.0419 133.331C80.9855 133.284 80.9084 133.25 80.8106 133.228C80.714 133.206 80.5976 133.191 80.4615 133.182L80.0542 133.155C79.7392 133.135 79.4804 133.063 79.2776 132.939C79.0748 132.814 78.9503 132.619 78.904 132.354C78.8639 132.138 78.8876 131.938 78.9751 131.755C79.0637 131.572 79.2023 131.417 79.3911 131.289C79.5798 131.162 79.8047 131.074 80.0657 131.027C80.3313 130.98 80.5713 130.984 80.7857 131.039C81.0013 131.094 81.1789 131.193 81.3187 131.335C81.4584 131.477 81.5492 131.654 81.5909 131.867L80.8656 131.997ZM83.5385 131.378L83.6389 131.938L82.0223 132.228L81.922 131.668L83.5385 131.378ZM82.1736 130.959L82.9181 130.826L83.3672 133.328C83.3795 133.397 83.3996 133.449 83.4275 133.484C83.4552 133.517 83.489 133.538 83.529 133.547C83.5702 133.555 83.6158 133.554 83.6659 133.545C83.7008 133.539 83.7353 133.53 83.7692 133.518C83.8029 133.505 83.8287 133.495 83.8468 133.488L84.0633 134.021C84.0281 134.039 83.9781 134.062 83.9132 134.089C83.8485 134.118 83.7682 134.142 83.6721 134.163C83.4939 134.202 83.3324 134.207 83.1874 134.176C83.0436 134.145 82.924 134.079 82.8288 133.977C82.7335 133.875 82.6707 133.736 82.6403 133.56L82.1736 130.959ZM86.0216 132.524L85.745 130.982L86.4895 130.849L86.9712 133.533L86.2564 133.661L86.1689 133.174L86.1409 133.179C86.1086 133.347 86.0305 133.492 85.9067 133.612C85.784 133.733 85.6219 133.811 85.4203 133.848C85.2409 133.88 85.0757 133.867 84.9248 133.81C84.7738 133.753 84.6464 133.656 84.5425 133.52C84.4398 133.383 84.3691 133.21 84.3303 133.001L84.0235 131.291L84.768 131.158L85.0509 132.734C85.0805 132.892 85.1455 133.01 85.2459 133.087C85.3463 133.164 85.467 133.19 85.608 133.164C85.6977 133.148 85.7779 133.113 85.8487 133.058C85.9192 133.002 85.9711 132.929 86.0042 132.839C86.0385 132.749 86.0443 132.644 86.0216 132.524ZM88.5637 133.292C88.3598 133.329 88.1658 133.31 87.9815 133.235C87.7982 133.158 87.6398 133.026 87.5063 132.838C87.3737 132.649 87.2806 132.405 87.2268 132.105C87.1716 131.798 87.1753 131.533 87.2377 131.312C87.2999 131.089 87.4041 130.912 87.5502 130.781C87.6972 130.649 87.8692 130.565 88.0661 130.53C88.2164 130.503 88.3463 130.506 88.4557 130.539C88.566 130.571 88.6589 130.619 88.7342 130.684C88.8105 130.747 88.8714 130.812 88.917 130.879L88.9397 130.874L88.6982 129.529L89.441 129.395L90.0833 132.975L89.3493 133.106L89.2722 132.676L89.2407 132.682C89.2191 132.763 89.1829 132.846 89.132 132.931C89.082 133.014 89.0107 133.089 88.9179 133.155C88.8262 133.221 88.7082 133.267 88.5637 133.292ZM88.6933 132.658C88.8133 132.636 88.9088 132.585 88.9799 132.505C89.0518 132.424 89.0993 132.32 89.1222 132.193C89.1463 132.066 89.1441 131.923 89.1154 131.763C89.0868 131.603 89.0398 131.469 88.9744 131.359C88.909 131.249 88.8286 131.17 88.7332 131.121C88.6378 131.072 88.5301 131.058 88.4101 131.08C88.2878 131.101 88.1906 131.153 88.1187 131.235C88.0467 131.316 87.9997 131.42 87.9777 131.545C87.9557 131.67 87.9586 131.811 87.9864 131.966C88.0145 132.122 88.0608 132.256 88.1254 132.368C88.191 132.479 88.2713 132.561 88.3661 132.614C88.4619 132.665 88.571 132.68 88.6933 132.658ZM90.6954 132.865L90.2137 130.18L90.9582 130.047L91.4399 132.731L90.6954 132.865ZM90.5256 129.767C90.4149 129.787 90.3134 129.767 90.221 129.708C90.1295 129.648 90.0745 129.566 90.0559 129.462C90.0375 129.359 90.0607 129.264 90.1256 129.177C90.1915 129.088 90.2797 129.034 90.3904 129.014C90.5011 128.994 90.6022 129.014 90.6936 129.075C90.786 129.134 90.8414 129.215 90.8598 129.318C90.8784 129.421 90.8548 129.518 90.7889 129.606C90.7241 129.694 90.6363 129.747 90.5256 129.767ZM93.2586 132.459C92.9871 132.508 92.742 132.492 92.5232 132.412C92.3054 132.331 92.1243 132.196 91.9799 132.008C91.8353 131.819 91.7383 131.587 91.689 131.312C91.6392 131.035 91.6493 130.783 91.7193 130.556C91.789 130.328 91.912 130.139 92.0882 129.988C92.2654 129.836 92.4897 129.736 92.7612 129.687C93.0326 129.638 93.2773 129.655 93.4951 129.736C93.7139 129.816 93.8955 129.95 94.0402 130.14C94.1846 130.328 94.2817 130.56 94.3314 130.838C94.3808 131.113 94.3706 131.364 94.3008 131.592C94.2308 131.818 94.1073 132.008 93.9301 132.16C93.7539 132.31 93.5301 132.41 93.2586 132.459ZM93.1586 131.882C93.2821 131.859 93.3789 131.806 93.4491 131.721C93.5191 131.635 93.5641 131.527 93.584 131.398C93.6052 131.267 93.6018 131.124 93.5737 130.968C93.5457 130.812 93.4992 130.677 93.4341 130.562C93.3702 130.447 93.2905 130.362 93.1951 130.306C93.0996 130.249 92.9901 130.232 92.8666 130.255C92.7419 130.277 92.6434 130.331 92.5712 130.418C92.5 130.504 92.4539 130.612 92.4327 130.742C92.4127 130.872 92.4167 131.015 92.4448 131.171C92.4728 131.327 92.5187 131.462 92.5826 131.577C92.6477 131.692 92.7286 131.777 92.8252 131.833C92.9228 131.888 93.0339 131.904 93.1586 131.882Z" fill="#3860D2"/>
</g>
<defs>
<clipPath id="clip0_4454_2065">
<rect width="110" height="117" fill="white" transform="translate(0.207031 19.5671) rotate(-10.1741)"/>
</clipPath>
</defs>
</svg>
