<svg width="110" height="117" viewBox="0 0 110 117" fill="none" xmlns="http://www.w3.org/2000/svg">
<g clip-path="url(#clip0_4454_2096)">
<path d="M54.844 109.855C41.532 109.855 29.012 104.671 19.602 95.2501C10.184 85.8399 5 73.3241 5 60.0121C5 46.7001 10.1836 34.1801 19.594 24.7701C33.68 10.6841 54.746 6.34006 73.266 13.6961L71.598 17.8914C54.758 11.2 35.606 15.157 22.786 27.9654C14.2274 36.524 9.516 47.9034 9.516 60.0124C9.516 72.1214 14.2269 83.5004 22.786 92.0594C31.3451 100.618 42.724 105.329 54.833 105.329C66.942 105.329 78.321 100.618 86.88 92.0594C99.72 79.2194 103.665 60.0244 96.923 43.1614L101.118 41.4856C108.529 60.0246 104.193 81.1336 90.0753 95.2556C80.6651 104.666 68.1493 109.861 54.8333 109.861L54.844 109.855Z" fill="#3860D2"/>
<path d="M54.8429 92.6604C46.1202 92.6604 37.9289 89.262 31.7649 83.1018C19.0419 70.3678 19.0419 49.6678 31.7649 36.9338C40.5735 28.1252 53.8629 25.0938 65.6279 29.1916L64.1435 33.4611C54.0025 29.922 42.5495 32.5353 34.9675 40.1291C23.9985 51.0981 23.9985 68.9381 34.9675 79.9061C40.28 85.2186 47.3465 88.1444 54.8505 88.1444C62.3583 88.1444 69.4205 85.2186 74.7335 79.9061C82.3273 72.3123 84.9405 60.8591 81.4015 50.7301L85.6593 49.2457C89.7687 61.0117 86.7257 74.3007 77.9171 83.1087C71.7569 89.2689 63.5501 92.6673 54.8391 92.6673L54.8429 92.6604Z" fill="#3860D2"/>
<path d="M54.8439 75.465C50.715 75.465 46.8439 73.8634 43.9179 70.9377C37.8945 64.9143 37.8945 55.1177 43.9179 49.0977C46.2187 46.7969 49.1132 45.3125 52.3163 44.7852L53.0468 49.2383C50.789 49.6133 48.7343 50.668 47.1093 52.293C42.8515 56.5508 42.8515 63.488 47.1093 67.746C49.1757 69.8124 51.9179 70.9491 54.8398 70.9491C57.7656 70.9491 60.5078 69.8085 62.5703 67.746C64.1953 66.121 65.2578 64.0663 65.625 61.8085L70.0781 62.5389C69.5508 65.7342 68.0547 68.6483 65.7539 70.9373C62.8398 73.8514 58.957 75.4646 54.8279 75.4646L54.8439 75.465Z" fill="#3860D2"/>
<path d="M56.4375 61.613L53.2422 58.4177L75.5122 36.1477L73.1684 27.9329C72.9418 27.1478 73.1684 26.3001 73.7387 25.7181L88.6527 10.8121C89.1996 10.2652 89.9965 10.027 90.7621 10.2106C91.5238 10.3824 92.1371 10.941 92.3871 11.6715L95.1527 19.7379L103.508 22.7691C104.227 23.0386 104.778 23.6519 104.938 24.4019C105.11 25.1558 104.871 25.941 104.336 26.4878L89.6133 41.2108C89.0313 41.7928 88.1953 42.0076 87.3985 41.7928L78.711 39.3397L56.4375 61.613ZM79.8715 34.976L87.3442 37.0854L98.6252 25.8044L92.594 23.6091C91.9495 23.3708 91.4534 22.8669 91.2268 22.2224L89.2815 16.5662L77.8715 27.9762L79.8715 34.976Z" fill="#3860D2"/>
</g>
<defs>
<clipPath id="clip0_4454_2096">
<rect width="110" height="117" fill="white"/>
</clipPath>
</defs>
</svg>
